<svg width="1080" height="1080" viewBox="0 0 1080 1080" fill="none" xmlns="http://www.w3.org/2000/svg">
<path d="M982.5 540C982.5 541.83 982.5 543.66 982.5 545.49C979.66 779.81 794.7 970.28 562.6 981.93C555.133 982.31 547.613 982.5 540.04 982.5H539.1C501.856 982.448 464.768 977.704 428.71 968.38C426.93 967.92 425.157 967.447 423.39 966.96C235.56 915.78 97.5 744 97.5 540C97.5 295.61 295.61 97.5 540 97.5C734.45 97.5 899.6 222.92 959 397.27L960 400.39C974.217 443.233 981.778 488.004 982.42 533.14C982.473 535.42 982.5 537.707 982.5 540Z" fill="#4589FF"/>
<path d="M982.5 540C982.5 541.83 982.5 543.66 982.5 545.49C979.66 779.81 794.7 970.28 562.6 981.93L302 683L640 446L717 356L723 348L735 302L982.44 533.14C982.48 535.42 982.5 537.707 982.5 540Z" fill="#005DFF"/>
<path d="M756.64 386H323.36C308.802 386 297 397.802 297 412.36V667.64C297 682.198 308.802 694 323.36 694H756.64C771.198 694 783 682.198 783 667.64V412.36C783 397.802 771.198 386 756.64 386Z" fill="white"/>
<path d="M573 691.75L443.43 776.81C442.512 777.412 441.448 777.755 440.35 777.802C439.253 777.849 438.164 777.598 437.197 777.077C436.231 776.555 435.424 775.782 434.861 774.839C434.298 773.896 434 772.818 434 771.72V640L573 691.75Z" fill="white"/>
<path d="M352 462H714.78" stroke="#42526E" stroke-width="10" stroke-linecap="round" stroke-linejoin="round"/>
<path d="M352 618H610" stroke="#42526E" stroke-width="10" stroke-linecap="round" stroke-linejoin="round"/>
<path d="M352 540H655" stroke="#42526E" stroke-width="10" stroke-linecap="round" stroke-linejoin="round"/>
<path d="M683.51 542.3L699.88 575.48L736.49 580.8L710 606.62L716.25 643.08L683.51 625.87L650.76 643.08L657.01 606.62L630.52 580.8L667.13 575.48L683.51 542.3Z" stroke="#42526E" stroke-width="10" stroke-linecap="round" stroke-linejoin="round"/>
<path d="M723.49 354.166L672.42 320.081L519.269 549.547L570.339 583.632L723.49 354.166Z" fill="white" stroke="#4589FF" stroke-width="9.52" stroke-linecap="round" stroke-linejoin="round"/>
<path d="M716.676 288.773L734.438 300.757C738.841 303.727 741.883 308.325 742.896 313.538C743.908 318.752 742.809 324.154 739.838 328.557L720.529 357.175L669.567 322.791L688.876 294.173C691.847 289.77 696.444 286.728 701.658 285.715C706.871 284.702 712.274 285.802 716.676 288.773Z" fill="white" stroke="#4589FF" stroke-width="9.53189" stroke-linecap="round" stroke-linejoin="round"/>
<path d="M515.46 600.17L519.28 549.54L570.35 583.62L525.06 606.62C524.01 607.155 522.835 607.399 521.658 607.328C520.481 607.257 519.344 606.873 518.366 606.215C517.387 605.558 516.601 604.651 516.091 603.588C515.58 602.525 515.362 601.345 515.46 600.17Z" fill="white" stroke="#4589FF" stroke-width="9.52" stroke-linecap="round" stroke-linejoin="round"/>
</svg>
