<svg width="1080" height="1080" viewBox="0 0 1080 1080" fill="none" xmlns="http://www.w3.org/2000/svg">
<path d="M982.5 540C982.507 555.81 981.672 571.609 980 587.33C968.368 695.892 916.992 796.315 835.76 869.27C754.529 942.225 649.183 982.556 540 982.5C525.38 982.5 510.937 981.803 496.67 980.41C473.725 978.192 450.989 974.179 428.67 968.41C426.89 967.95 425.117 967.477 423.35 966.99C235.56 915.78 97.5 744 97.5 540C97.5 295.61 295.61 97.5 540 97.5C734.45 97.5 899.6 222.92 959 397.27L960 400.39C972.798 438.949 980.202 479.092 982 519.68C982.34 526.413 982.507 533.187 982.5 540Z" fill="#4589FF"/>
<path d="M982 519.68L763 298L295.73 406.61L461.42 569.74L401.73 583.61L543 722.68L293.73 780.61L496.67 980.41C510.93 981.79 525.374 982.487 540 982.5C649.169 982.505 754.487 942.157 835.708 869.211C916.929 796.266 968.319 695.872 980 587.33C981.673 571.609 982.507 555.81 982.5 540C982.5 533.193 982.334 526.42 982 519.68Z" fill="#005DFF"/>
<path d="M743.34 665.5H314.66C299.936 665.5 288 677.436 288 692.16V763.84C288 778.564 299.936 790.5 314.66 790.5H743.34C758.064 790.5 770 778.564 770 763.84V692.16C770 677.436 758.064 665.5 743.34 665.5Z" fill="white"/>
<path d="M395.85 684H332.49C325.686 684 320.17 689.516 320.17 696.32V759.68C320.17 766.484 325.686 772 332.49 772H395.85C402.654 772 408.17 766.484 408.17 759.68V696.32C408.17 689.516 402.654 684 395.85 684Z" fill="white" stroke="#42526E" stroke-width="10" stroke-linecap="round" stroke-linejoin="round"/>
<path d="M434.17 737.52H643.17" stroke="#42526E" stroke-width="10" stroke-linecap="round" stroke-linejoin="round"/>
<path d="M434.17 703.52H737.83" stroke="#42526E" stroke-width="10" stroke-linecap="round" stroke-linejoin="round"/>
<path d="M857.34 477.5H428.66C413.936 477.5 402 489.436 402 504.16V575.84C402 590.564 413.936 602.5 428.66 602.5H857.34C872.064 602.5 884 590.564 884 575.84V504.16C884 489.436 872.064 477.5 857.34 477.5Z" fill="white"/>
<path d="M509.85 496H446.49C439.686 496 434.17 501.516 434.17 508.32V571.68C434.17 578.484 439.686 584 446.49 584H509.85C516.654 584 522.17 578.484 522.17 571.68V508.32C522.17 501.516 516.654 496 509.85 496Z" fill="white" stroke="#42526E" stroke-width="10" stroke-linecap="round" stroke-linejoin="round"/>
<path d="M548.17 549.52H757.17" stroke="#42526E" stroke-width="10" stroke-linecap="round" stroke-linejoin="round"/>
<path d="M548.17 515.52H851.83" stroke="#42526E" stroke-width="10" stroke-linecap="round" stroke-linejoin="round"/>
<path d="M743.34 289.5H314.66C299.936 289.5 288 301.436 288 316.16V387.84C288 402.564 299.936 414.5 314.66 414.5H743.34C758.064 414.5 770 402.564 770 387.84V316.16C770 301.436 758.064 289.5 743.34 289.5Z" fill="white"/>
<path d="M395.85 308H332.49C325.686 308 320.17 313.516 320.17 320.32V383.68C320.17 390.484 325.686 396 332.49 396H395.85C402.654 396 408.17 390.484 408.17 383.68V320.32C408.17 313.516 402.654 308 395.85 308Z" fill="white" stroke="#42526E" stroke-width="10" stroke-linecap="round" stroke-linejoin="round"/>
<path d="M434.17 361.52H643.17" stroke="#42526E" stroke-width="10" stroke-linecap="round" stroke-linejoin="round"/>
<path d="M434.17 327.52H737.83" stroke="#42526E" stroke-width="10" stroke-linecap="round" stroke-linejoin="round"/>
<path d="M234 354.09C203.67 366.73 181.84 391.65 185.22 429.44C188.22 462.51 213.5 485.13 238.93 503.23C275.41 529.23 316.93 535.42 360.12 540.94C321.43 541.16 281.76 541.55 245.62 555.36C209.23 569.26 171.8 603.94 175.18 646.15C178.46 687.15 226.9 719.95 262.69 731.15" stroke="white" stroke-width="6.88" stroke-linecap="round" stroke-linejoin="round"/>
<path d="M262 346.2C247.44 345.2 228.7 341.68 216 335.84L230.42 355.49L229 379.81C236.5 368 250.34 354.93 262 346.2Z" fill="white"/>
</svg>
