<svg width="1080" height="1080" viewBox="0 0 1080 1080" fill="none" xmlns="http://www.w3.org/2000/svg">
<g clip-path="url(#clip0_656_3707)">
<path d="M982.5 540C982.525 574.041 978.629 607.971 970.89 641.12C933.89 799.57 811.67 925.28 655.21 967.35C581.043 987.185 503.01 987.53 428.67 968.35C426.89 967.89 425.117 967.417 423.35 966.93C235.56 915.78 97.5 744 97.5 540C97.5 295.61 295.61 97.5 540 97.5C734.45 97.5 899.6 222.92 959 397.27L960 400.39C974.948 445.417 982.545 492.557 982.5 540Z" fill="#4589FF"/>
<path d="M970.89 641.12C933.89 799.57 811.67 925.28 655.21 967.35C607.356 922.217 559.526 877.06 511.72 831.88C483.053 804.887 454.413 777.853 425.8 750.78C421.86 747.6 418.73 743.51 418.8 737.97V656.16C387.6 626.72 356.383 597.263 325.15 567.79C189.81 450.1 373.85 275.26 488.83 413.72L542.7 464.56C566.28 437.3 588.21 471.12 606.1 486.43C630.2 509.143 654.286 531.877 678.36 554.63C703.7 555.22 712.75 551.12 726.83 561.83L564.83 401.48L652.23 410.63L639 328L970.89 641.12Z" fill="#005DFF"/>
<path d="M470.27 554.48H433.29C425.277 554.48 418.78 560.976 418.78 568.99V737.97C418.78 745.984 425.277 752.48 433.29 752.48H470.27C478.284 752.48 484.78 745.984 484.78 737.97V568.99C484.78 560.976 478.284 554.48 470.27 554.48Z" fill="white"/>
<path d="M539.69 752.48C594.317 752.48 638.6 708.196 638.6 653.57C638.6 598.943 594.317 554.66 539.69 554.66C485.064 554.66 440.78 598.943 440.78 653.57C440.78 708.196 485.064 752.48 539.69 752.48Z" fill="white"/>
<path d="M694.8 752.45H546.27C539.711 752.45 533.421 749.845 528.783 745.207C524.146 740.569 521.54 734.279 521.54 727.72C521.54 721.161 524.146 714.871 528.783 710.233C533.421 705.596 539.711 702.99 546.27 702.99H694.8C701.359 702.99 707.649 705.596 712.287 710.233C716.925 714.871 719.53 721.161 719.53 727.72C719.53 734.279 716.925 740.569 712.287 745.207C707.649 749.845 701.359 752.45 694.8 752.45Z" fill="white"/>
<path d="M709.31 703H560.77C557.481 703.066 554.213 702.475 551.155 701.263C548.097 700.05 545.312 698.239 542.963 695.937C540.614 693.634 538.747 690.886 537.473 687.853C536.199 684.821 535.543 681.564 535.543 678.275C535.543 674.986 536.199 671.729 537.473 668.696C538.747 665.664 540.614 662.916 542.963 660.613C545.312 658.311 548.097 656.5 551.155 655.287C554.213 654.074 557.481 653.484 560.77 653.55H709.31C712.599 653.484 715.868 654.074 718.926 655.287C721.983 656.5 724.768 658.311 727.118 660.613C729.467 662.916 731.333 665.664 732.607 668.696C733.881 671.729 734.538 674.986 734.538 678.275C734.538 681.564 733.881 684.821 732.607 687.853C731.333 690.886 729.467 693.634 727.118 695.937C724.768 698.239 721.983 700.05 718.926 701.263C715.868 702.475 712.599 703.066 709.31 703Z" fill="white"/>
<path d="M725.63 653.54H577.09C570.532 653.54 564.241 650.935 559.604 646.297C554.966 641.659 552.36 635.369 552.36 628.81C552.36 622.251 554.966 615.961 559.604 611.323C564.241 606.686 570.532 604.08 577.09 604.08H725.63C732.189 604.08 738.479 606.686 743.117 611.323C747.755 615.961 750.36 622.251 750.36 628.81C750.36 635.369 747.755 641.659 743.117 646.297C738.479 650.935 732.189 653.54 725.63 653.54Z" fill="white"/>
<path d="M709.31 604.08H560.77C557.481 604.146 554.213 603.555 551.155 602.343C548.097 601.13 545.312 599.319 542.963 597.017C540.614 594.714 538.747 591.966 537.473 588.934C536.199 585.901 535.543 582.644 535.543 579.355C535.543 576.066 536.199 572.809 537.473 569.776C538.747 566.744 540.614 563.996 542.963 561.693C545.312 559.391 548.097 557.58 551.155 556.367C554.213 555.154 557.481 554.564 560.77 554.63H709.31C712.599 554.564 715.868 555.154 718.926 556.367C721.983 557.58 724.768 559.391 727.118 561.693C729.467 563.996 731.333 566.744 732.607 569.776C733.881 572.809 734.538 576.066 734.538 579.355C734.538 582.644 733.881 585.901 732.607 588.934C731.333 591.966 729.467 594.714 727.118 597.017C724.768 599.319 721.983 601.13 718.926 602.343C715.868 603.555 712.599 604.146 709.31 604.08Z" fill="white"/>
<path d="M559.79 596.71C547.35 599.53 538.49 587.71 527.36 584.15C520.99 582.08 514.89 582.44 509.48 577.57C506.73 575.09 504.81 571.43 505.28 567.76C505.75 564.09 508.49 561.06 511.59 559.02C532.31 545.31 543.29 530.69 543 504.8C542.88 494.08 536.85 479.07 540.29 469.2C543.51 459.97 553.99 454.07 563.45 454.5C588.51 455.66 596.35 490.92 596.13 510.72C595.94 528.79 589.41 546.07 581.52 562.08C577.81 569.6 572.73 576.88 569.84 584.69C567.63 590.62 567.11 595.05 559.79 596.71Z" fill="white"/>
<path d="M750.78 545.92C776.428 545.92 797.22 525.128 797.22 499.48C797.22 473.832 776.428 453.04 750.78 453.04C725.132 453.04 704.34 473.832 704.34 499.48C704.34 525.128 725.132 545.92 750.78 545.92Z" fill="white"/>
<path d="M638.78 475.44C679.627 475.44 712.74 442.327 712.74 401.48C712.74 360.633 679.627 327.52 638.78 327.52C597.933 327.52 564.82 360.633 564.82 401.48C564.82 442.327 597.933 475.44 638.78 475.44Z" fill="white"/>
<path d="M623.69 655.08H723C723 655.08 750 653 750.36 628.81" stroke="#42526E" stroke-width="10" stroke-linecap="round" stroke-linejoin="round"/>
<path d="M485.01 725.48V581.48" stroke="#42526E" stroke-width="10" stroke-linecap="round" stroke-linejoin="round"/>
<path d="M603 752H693.81C693.81 752 718.81 751.92 718.81 727.18" stroke="#42526E" stroke-width="10" stroke-linecap="round" stroke-linejoin="round"/>
<path d="M607.19 703.08H709C709 703.08 734 703 734 678.27" stroke="#42526E" stroke-width="10" stroke-linecap="round" stroke-linejoin="round"/>
<path d="M607.19 604.08H709C709 604.08 732.08 604.71 734 579.35" stroke="#42526E" stroke-width="10" stroke-linecap="round" stroke-linejoin="round"/>
<path d="M390.28 582.48C449.651 582.48 497.78 534.351 497.78 474.98C497.78 415.609 449.651 367.48 390.28 367.48C330.91 367.48 282.78 415.609 282.78 474.98C282.78 534.351 330.91 582.48 390.28 582.48Z" fill="white"/>
<path d="M390.28 582.48C449.651 582.48 497.78 534.351 497.78 474.98C497.78 415.609 449.651 367.48 390.28 367.48C330.91 367.48 282.78 415.609 282.78 474.98C282.78 534.351 330.91 582.48 390.28 582.48Z" stroke="#42526E" stroke-width="10" stroke-linecap="round" stroke-linejoin="round"/>
<path d="M350.78 487.48L378.03 522.33L428.78 427.96" stroke="#42526E" stroke-width="10" stroke-linecap="round" stroke-linejoin="round"/>
</g>
<defs>
<clipPath id="clip0_656_3707">
<rect width="1080" height="1080" fill="white"/>
</clipPath>
</defs>
</svg>
