<svg width="119" height="49" viewBox="0 0 119 49" fill="none" xmlns="http://www.w3.org/2000/svg">
<g filter="url(#filter0_d_371_3697)">
<rect x="4" y="4" width="111" height="41" rx="10" fill="white"/>
<path d="M28.7031 19.5781V26.9688C28.7031 27.776 28.5391 28.4948 28.2109 29.125C27.888 29.7552 27.3984 30.2526 26.7422 30.6172C26.0859 30.9766 25.263 31.1562 24.2734 31.1562C22.862 31.1562 21.7865 30.7734 21.0469 30.0078C20.3125 29.2422 19.9453 28.2188 19.9453 26.9375V19.5781H21.2812V26.9766C21.2812 27.9453 21.5365 28.6927 22.0469 29.2188C22.5625 29.7448 23.3307 30.0078 24.3516 30.0078C25.0495 30.0078 25.6198 29.8828 26.0625 29.6328C26.5104 29.3776 26.8411 29.0234 27.0547 28.5703C27.2734 28.112 27.3828 27.5833 27.3828 26.9844V19.5781H28.7031ZM35.4297 22.2812C35.6016 22.2812 35.7812 22.2917 35.9688 22.3125C36.1562 22.3281 36.3229 22.3516 36.4688 22.3828L36.3047 23.5859C36.1641 23.5495 36.0078 23.5208 35.8359 23.5C35.6641 23.4792 35.5026 23.4688 35.3516 23.4688C35.0078 23.4688 34.6823 23.5391 34.375 23.6797C34.0729 23.8151 33.8073 24.013 33.5781 24.2734C33.349 24.5286 33.1693 24.8385 33.0391 25.2031C32.9089 25.5625 32.8438 25.9635 32.8438 26.4062V31H31.5391V22.4375H32.6172L32.7578 24.0156H32.8125C32.9896 23.6979 33.2031 23.4089 33.4531 23.1484C33.7031 22.8828 33.9922 22.6719 34.3203 22.5156C34.6536 22.3594 35.0234 22.2812 35.4297 22.2812ZM40.4766 34.8438C39.3516 34.8438 38.4844 34.6328 37.875 34.2109C37.2656 33.7943 36.9609 33.2083 36.9609 32.4531C36.9609 31.9167 37.1302 31.4583 37.4688 31.0781C37.8125 30.6979 38.2865 30.4453 38.8906 30.3203C38.6667 30.2161 38.474 30.0599 38.3125 29.8516C38.1562 29.6432 38.0781 29.4036 38.0781 29.1328C38.0781 28.8203 38.1641 28.5469 38.3359 28.3125C38.513 28.0729 38.7812 27.8438 39.1406 27.625C38.6927 27.4427 38.3281 27.1354 38.0469 26.7031C37.7708 26.2656 37.6328 25.7578 37.6328 25.1797C37.6328 24.5651 37.7604 24.0417 38.0156 23.6094C38.2708 23.1719 38.6406 22.8385 39.125 22.6094C39.6094 22.3802 40.1953 22.2656 40.8828 22.2656C41.0339 22.2656 41.1849 22.2734 41.3359 22.2891C41.4922 22.2995 41.6406 22.3177 41.7812 22.3438C41.9219 22.3646 42.0443 22.3906 42.1484 22.4219H45.0859V23.2578L43.5078 23.4531C43.6641 23.6562 43.7943 23.901 43.8984 24.1875C44.0026 24.474 44.0547 24.7917 44.0547 25.1406C44.0547 25.9948 43.7656 26.6745 43.1875 27.1797C42.6094 27.6797 41.8151 27.9297 40.8047 27.9297C40.5651 27.9297 40.3203 27.9089 40.0703 27.8672C39.8151 28.0078 39.6198 28.1641 39.4844 28.3359C39.3542 28.5078 39.2891 28.7057 39.2891 28.9297C39.2891 29.0964 39.3385 29.2292 39.4375 29.3281C39.5417 29.4271 39.6901 29.5 39.8828 29.5469C40.0755 29.5885 40.3073 29.6094 40.5781 29.6094H42.0859C43.0182 29.6094 43.7318 29.8047 44.2266 30.1953C44.7266 30.5859 44.9766 31.1562 44.9766 31.9062C44.9766 32.8542 44.5911 33.5807 43.8203 34.0859C43.0495 34.5911 41.9349 34.8438 40.4766 34.8438ZM40.5156 33.8281C41.224 33.8281 41.8099 33.7552 42.2734 33.6094C42.7422 33.4688 43.0911 33.263 43.3203 32.9922C43.5547 32.7266 43.6719 32.4089 43.6719 32.0391C43.6719 31.6953 43.5938 31.4349 43.4375 31.2578C43.2812 31.0859 43.0521 30.9714 42.75 30.9141C42.4479 30.8516 42.0781 30.8203 41.6406 30.8203H40.1562C39.7708 30.8203 39.4349 30.8802 39.1484 31C38.862 31.1198 38.6406 31.2969 38.4844 31.5312C38.3333 31.7656 38.2578 32.0573 38.2578 32.4062C38.2578 32.8698 38.4531 33.2214 38.8438 33.4609C39.2344 33.7057 39.7917 33.8281 40.5156 33.8281ZM40.8516 26.9844C41.4714 26.9844 41.9375 26.8281 42.25 26.5156C42.5625 26.2031 42.7188 25.7474 42.7188 25.1484C42.7188 24.5078 42.5599 24.0286 42.2422 23.7109C41.9245 23.388 41.4557 23.2266 40.8359 23.2266C40.2422 23.2266 39.7839 23.3932 39.4609 23.7266C39.1432 24.0547 38.9844 24.5365 38.9844 25.1719C38.9844 25.7552 39.1458 26.2031 39.4688 26.5156C39.7917 26.8281 40.2526 26.9844 40.8516 26.9844ZM50.0703 22.2812C50.7995 22.2812 51.4245 22.4427 51.9453 22.7656C52.4661 23.0885 52.8646 23.5417 53.1406 24.125C53.4167 24.7031 53.5547 25.3802 53.5547 26.1562V26.9609H47.6406C47.6562 27.9661 47.9062 28.7318 48.3906 29.2578C48.875 29.7839 49.5573 30.0469 50.4375 30.0469C50.9792 30.0469 51.4583 29.9974 51.875 29.8984C52.2917 29.7995 52.724 29.6536 53.1719 29.4609V30.6016C52.7396 30.7943 52.3099 30.9349 51.8828 31.0234C51.4609 31.112 50.9609 31.1562 50.3828 31.1562C49.5599 31.1562 48.8411 30.9896 48.2266 30.6562C47.6172 30.3177 47.1432 29.8229 46.8047 29.1719C46.4661 28.5208 46.2969 27.724 46.2969 26.7812C46.2969 25.8594 46.4505 25.0625 46.7578 24.3906C47.0703 23.7135 47.5078 23.1927 48.0703 22.8281C48.638 22.4635 49.3047 22.2812 50.0703 22.2812ZM50.0547 23.3438C49.362 23.3438 48.8099 23.5703 48.3984 24.0234C47.987 24.4766 47.7422 25.1094 47.6641 25.9219H52.1953C52.1901 25.4115 52.1094 24.9635 51.9531 24.5781C51.8021 24.1875 51.5703 23.8854 51.2578 23.6719C50.9453 23.4531 50.5443 23.3438 50.0547 23.3438ZM59.8125 22.2812C60.8281 22.2812 61.5964 22.5312 62.1172 23.0312C62.638 23.526 62.8984 24.3229 62.8984 25.4219V31H61.6172V25.5078C61.6172 24.7943 61.4531 24.2604 61.125 23.9062C60.8021 23.5521 60.3047 23.375 59.6328 23.375C58.6849 23.375 58.0182 23.6432 57.6328 24.1797C57.2474 24.7161 57.0547 25.4948 57.0547 26.5156V31H55.7578V22.4375H56.8047L57 23.6719H57.0703C57.2526 23.3698 57.4844 23.1172 57.7656 22.9141C58.0469 22.7057 58.362 22.5495 58.7109 22.4453C59.0599 22.3359 59.4271 22.2812 59.8125 22.2812ZM68.3359 30.0938C68.5495 30.0938 68.7682 30.0755 68.9922 30.0391C69.2161 30.0026 69.3984 29.9583 69.5391 29.9062V30.9141C69.388 30.9818 69.1771 31.0391 68.9062 31.0859C68.6406 31.1328 68.3802 31.1562 68.125 31.1562C67.6719 31.1562 67.2604 31.0781 66.8906 30.9219C66.5208 30.7604 66.224 30.4896 66 30.1094C65.7812 29.7292 65.6719 29.2031 65.6719 28.5312V23.4531H64.4531V22.8203L65.6797 22.3125L66.1953 20.4531H66.9766V22.4375H69.4844V23.4531H66.9766V28.4922C66.9766 29.0286 67.099 29.4297 67.3438 29.6953C67.5938 29.9609 67.9245 30.0938 68.3359 30.0938Z" fill="black"/>
<g clip-path="url(#clip0_371_3697)">
<path d="M99.4043 31.755C99.1696 31.7554 98.9411 31.6805 98.7522 31.5414L90.5001 25.4582L82.2481 31.5414C82.1322 31.627 82.0007 31.6889 81.8609 31.7237C81.7211 31.7584 81.5758 31.7653 81.4333 31.7439C81.2908 31.7226 81.154 31.6734 81.0305 31.5992C80.9071 31.525 80.7995 31.4272 80.7138 31.3114C80.6282 31.1957 80.5662 31.0642 80.5315 30.9245C80.4967 30.7848 80.4898 30.6396 80.5112 30.4973C80.5543 30.2097 80.71 29.9511 80.944 29.7783L89.8481 23.2079C90.0368 23.0683 90.2654 22.9929 90.5001 22.9929C90.7349 22.9929 90.9635 23.0683 91.1522 23.2079L100.056 29.7783C100.242 29.9153 100.38 30.1074 100.45 30.3272C100.52 30.5471 100.519 30.7835 100.447 31.0027C100.375 31.2219 100.235 31.4126 100.048 31.5477C99.8604 31.6828 99.6352 31.7554 99.4043 31.755Z" fill="#FF3D00"/>
<path d="M99.4043 26.0058C99.1696 26.0062 98.9411 25.9314 98.7522 25.7923L90.5002 19.7091L82.2481 25.7923C82.0141 25.9651 81.721 26.0379 81.4333 25.9948C81.1456 25.9517 80.8868 25.7961 80.7138 25.5623C80.5409 25.3285 80.468 25.0356 80.5112 24.7481C80.5543 24.4606 80.71 24.202 80.944 24.0292L89.8481 17.4587C90.0368 17.3191 90.2654 17.2438 90.5002 17.2438C90.7349 17.2438 90.9635 17.3191 91.1522 17.4587L100.056 24.0292C100.242 24.1661 100.38 24.3582 100.45 24.5781C100.52 24.798 100.519 25.0344 100.447 25.2536C100.375 25.4727 100.235 25.6635 100.048 25.7986C99.8604 25.9337 99.6352 26.0062 99.4043 26.0058Z" fill="#FF3D00"/>
</g>
</g>
<defs>
<filter id="filter0_d_371_3697" x="0" y="0" width="119" height="49" filterUnits="userSpaceOnUse" color-interpolation-filters="sRGB">
<feFlood flood-opacity="0" result="BackgroundImageFix"/>
<feColorMatrix in="SourceAlpha" type="matrix" values="0 0 0 0 0 0 0 0 0 0 0 0 0 0 0 0 0 0 127 0" result="hardAlpha"/>
<feOffset/>
<feGaussianBlur stdDeviation="2"/>
<feColorMatrix type="matrix" values="0 0 0 0 0 0 0 0 0 0 0 0 0 0 0 0 0 0 0.16 0"/>
<feBlend mode="normal" in2="BackgroundImageFix" result="effect1_dropShadow_371_3697"/>
<feBlend mode="normal" in="SourceGraphic" in2="effect1_dropShadow_371_3697" result="shape"/>
</filter>
<clipPath id="clip0_371_3697">
<rect width="20" height="14.5098" fill="white" transform="translate(80.5 17.2451)"/>
</clipPath>
</defs>
</svg>
