<svg width="119" height="49" viewBox="0 0 119 49" fill="none" xmlns="http://www.w3.org/2000/svg">
<g filter="url(#filter0_d_371_3814)">
<rect x="4" width="111" height="41" rx="10" fill="#FFA800"/>
<path d="M20.0859 27L16.25 16.8906H16.1875C16.2083 17.1042 16.2266 17.3646 16.2422 17.6719C16.2578 17.9792 16.2708 18.3151 16.2812 18.6797C16.2917 19.0391 16.2969 19.4062 16.2969 19.7812V27H15.0625V15.5781H17.0312L20.6484 25.0781H20.7031L24.375 15.5781H26.3281V27H25.0156V19.6875C25.0156 19.349 25.0208 19.0104 25.0312 18.6719C25.0417 18.3281 25.0547 18.0052 25.0703 17.7031C25.0859 17.3958 25.1016 17.1302 25.1172 16.9062H25.0547L21.1719 27H20.0859ZM32.5547 18.2812C33.2839 18.2812 33.9089 18.4427 34.4297 18.7656C34.9505 19.0885 35.349 19.5417 35.625 20.125C35.901 20.7031 36.0391 21.3802 36.0391 22.1562V22.9609H30.125C30.1406 23.9661 30.3906 24.7318 30.875 25.2578C31.3594 25.7839 32.0417 26.0469 32.9219 26.0469C33.4635 26.0469 33.9427 25.9974 34.3594 25.8984C34.776 25.7995 35.2083 25.6536 35.6562 25.4609V26.6016C35.224 26.7943 34.7943 26.9349 34.3672 27.0234C33.9453 27.112 33.4453 27.1562 32.8672 27.1562C32.0443 27.1562 31.3255 26.9896 30.7109 26.6562C30.1016 26.3177 29.6276 25.8229 29.2891 25.1719C28.9505 24.5208 28.7812 23.724 28.7812 22.7812C28.7812 21.8594 28.9349 21.0625 29.2422 20.3906C29.5547 19.7135 29.9922 19.1927 30.5547 18.8281C31.1224 18.4635 31.7891 18.2812 32.5547 18.2812ZM32.5391 19.3438C31.8464 19.3438 31.2943 19.5703 30.8828 20.0234C30.4714 20.4766 30.2266 21.1094 30.1484 21.9219H34.6797C34.6745 21.4115 34.5938 20.9635 34.4375 20.5781C34.2865 20.1875 34.0547 19.8854 33.7422 19.6719C33.4297 19.4531 33.0286 19.3438 32.5391 19.3438ZM41.2891 27.1562C40.2057 27.1562 39.3464 26.7865 38.7109 26.0469C38.0807 25.3073 37.7656 24.2083 37.7656 22.75C37.7656 21.276 38.0885 20.1641 38.7344 19.4141C39.3802 18.6589 40.2396 18.2812 41.3125 18.2812C41.7656 18.2812 42.1615 18.3411 42.5 18.4609C42.8385 18.5807 43.1302 18.7422 43.375 18.9453C43.6198 19.1432 43.8255 19.3698 43.9922 19.625H44.0859C44.0651 19.4635 44.0443 19.2422 44.0234 18.9609C44.0026 18.6797 43.9922 18.4505 43.9922 18.2734V14.8438H45.2891V27H44.2422L44.0469 25.7812H43.9922C43.8307 26.0365 43.625 26.2682 43.375 26.4766C43.1302 26.6849 42.8359 26.8516 42.4922 26.9766C42.1536 27.0964 41.7526 27.1562 41.2891 27.1562ZM41.4922 26.0781C42.4089 26.0781 43.0573 25.8177 43.4375 25.2969C43.8177 24.776 44.0078 24.0026 44.0078 22.9766V22.7422C44.0078 21.6536 43.8255 20.8177 43.4609 20.2344C43.1016 19.651 42.4453 19.3594 41.4922 19.3594C40.6953 19.3594 40.099 19.6667 39.7031 20.2812C39.3073 20.8906 39.1094 21.724 39.1094 22.7812C39.1094 23.8333 39.3047 24.6458 39.6953 25.2188C40.0911 25.7917 40.6901 26.0781 41.4922 26.0781ZM49.3359 18.4375V27H48.0391V18.4375H49.3359ZM48.7031 15.2344C48.9167 15.2344 49.099 15.3047 49.25 15.4453C49.4062 15.5807 49.4844 15.7943 49.4844 16.0859C49.4844 16.3724 49.4062 16.5859 49.25 16.7266C49.099 16.8672 48.9167 16.9375 48.7031 16.9375C48.4792 16.9375 48.2917 16.8672 48.1406 16.7266C47.9948 16.5859 47.9219 16.3724 47.9219 16.0859C47.9219 15.7943 47.9948 15.5807 48.1406 15.4453C48.2917 15.3047 48.4792 15.2344 48.7031 15.2344ZM59.1562 18.4375V27H58.0938L57.9062 25.7969H57.8359C57.6589 26.0938 57.4297 26.3438 57.1484 26.5469C56.8672 26.75 56.5495 26.901 56.1953 27C55.8464 27.1042 55.474 27.1562 55.0781 27.1562C54.401 27.1562 53.8333 27.0469 53.375 26.8281C52.9167 26.6094 52.5703 26.2708 52.3359 25.8125C52.1068 25.3542 51.9922 24.7656 51.9922 24.0469V18.4375H53.3047V23.9531C53.3047 24.6667 53.4661 25.2005 53.7891 25.5547C54.112 25.9036 54.6042 26.0781 55.2656 26.0781C55.901 26.0781 56.4062 25.9583 56.7812 25.7188C57.1615 25.4792 57.4349 25.1276 57.6016 24.6641C57.7682 24.1953 57.8516 23.6224 57.8516 22.9453V18.4375H59.1562ZM71.1953 18.2812C72.138 18.2812 72.849 18.5286 73.3281 19.0234C73.8073 19.513 74.0469 20.3021 74.0469 21.3906V27H72.7656V21.4531C72.7656 20.7604 72.6146 20.2422 72.3125 19.8984C72.0156 19.5495 71.5729 19.375 70.9844 19.375C70.1562 19.375 69.5547 19.6146 69.1797 20.0938C68.8047 20.5729 68.6172 21.2786 68.6172 22.2109V27H67.3281V21.4531C67.3281 20.9896 67.2604 20.6042 67.125 20.2969C66.9948 19.9896 66.7969 19.7604 66.5312 19.6094C66.2708 19.4531 65.9401 19.375 65.5391 19.375C64.9714 19.375 64.5156 19.4922 64.1719 19.7266C63.8281 19.9609 63.5781 20.3099 63.4219 20.7734C63.2708 21.2318 63.1953 21.7969 63.1953 22.4688V27H61.8984V18.4375H62.9453L63.1406 19.6484H63.2109C63.3828 19.3516 63.599 19.1016 63.8594 18.8984C64.1198 18.6953 64.4115 18.5417 64.7344 18.4375C65.0573 18.3333 65.401 18.2812 65.7656 18.2812C66.4167 18.2812 66.9609 18.4036 67.3984 18.6484C67.8411 18.888 68.1615 19.2552 68.3594 19.75H68.4297C68.7109 19.2552 69.0964 18.888 69.5859 18.6484C70.0755 18.4036 70.612 18.2812 71.1953 18.2812Z" fill="white"/>
<g clip-path="url(#clip0_371_3814)">
<path d="M104.404 24.2255H86.5959C86.3052 24.2255 86.0265 24.1092 85.821 23.9022C85.6155 23.6952 85.5 23.4144 85.5 23.1217C85.5 22.8289 85.6155 22.5481 85.821 22.3411C86.0265 22.1341 86.3052 22.0178 86.5959 22.0178H104.404C104.695 22.0178 104.974 22.1341 105.179 22.3411C105.385 22.5481 105.5 22.8289 105.5 23.1217C105.5 23.4144 105.385 23.6952 105.179 23.9022C104.974 24.1092 104.695 24.2255 104.404 24.2255Z" fill="white"/>
<path d="M104.404 18.9822H86.5959C86.3052 18.9822 86.0265 18.8659 85.821 18.6589C85.6155 18.4519 85.5 18.1711 85.5 17.8784C85.5 17.5856 85.6155 17.3049 85.821 17.0978C86.0265 16.8908 86.3052 16.7745 86.5959 16.7745H104.404C104.695 16.7745 104.974 16.8908 105.179 17.0978C105.385 17.3049 105.5 17.5856 105.5 17.8784C105.5 18.1711 105.385 18.4519 105.179 18.6589C104.974 18.8659 104.695 18.9822 104.404 18.9822Z" fill="white"/>
</g>
</g>
<defs>
<filter id="filter0_d_371_3814" x="0" y="0" width="119" height="49" filterUnits="userSpaceOnUse" color-interpolation-filters="sRGB">
<feFlood flood-opacity="0" result="BackgroundImageFix"/>
<feColorMatrix in="SourceAlpha" type="matrix" values="0 0 0 0 0 0 0 0 0 0 0 0 0 0 0 0 0 0 127 0" result="hardAlpha"/>
<feOffset dy="4"/>
<feGaussianBlur stdDeviation="2"/>
<feComposite in2="hardAlpha" operator="out"/>
<feColorMatrix type="matrix" values="0 0 0 0 0 0 0 0 0 0 0 0 0 0 0 0 0 0 0.25 0"/>
<feBlend mode="normal" in2="BackgroundImageFix" result="effect1_dropShadow_371_3814"/>
<feBlend mode="normal" in="SourceGraphic" in2="effect1_dropShadow_371_3814" result="shape"/>
</filter>
<clipPath id="clip0_371_3814">
<rect width="20" height="7.45098" fill="white" transform="translate(85.5 16.7745)"/>
</clipPath>
</defs>
</svg>
