<svg width="119" height="49" viewBox="0 0 119 49" fill="none" xmlns="http://www.w3.org/2000/svg">
<g filter="url(#filter0_d_371_3785)">
<rect x="4" width="111" height="41" rx="10" fill="#FF3D00"/>
<path d="M28.7031 15.5781V22.9688C28.7031 23.776 28.5391 24.4948 28.2109 25.125C27.888 25.7552 27.3984 26.2526 26.7422 26.6172C26.0859 26.9766 25.263 27.1562 24.2734 27.1562C22.862 27.1562 21.7865 26.7734 21.0469 26.0078C20.3125 25.2422 19.9453 24.2188 19.9453 22.9375V15.5781H21.2812V22.9766C21.2812 23.9453 21.5365 24.6927 22.0469 25.2188C22.5625 25.7448 23.3307 26.0078 24.3516 26.0078C25.0495 26.0078 25.6198 25.8828 26.0625 25.6328C26.5104 25.3776 26.8411 25.0234 27.0547 24.5703C27.2734 24.112 27.3828 23.5833 27.3828 22.9844V15.5781H28.7031ZM35.4297 18.2812C35.6016 18.2812 35.7812 18.2917 35.9688 18.3125C36.1562 18.3281 36.3229 18.3516 36.4688 18.3828L36.3047 19.5859C36.1641 19.5495 36.0078 19.5208 35.8359 19.5C35.6641 19.4792 35.5026 19.4688 35.3516 19.4688C35.0078 19.4688 34.6823 19.5391 34.375 19.6797C34.0729 19.8151 33.8073 20.013 33.5781 20.2734C33.349 20.5286 33.1693 20.8385 33.0391 21.2031C32.9089 21.5625 32.8438 21.9635 32.8438 22.4062V27H31.5391V18.4375H32.6172L32.7578 20.0156H32.8125C32.9896 19.6979 33.2031 19.4089 33.4531 19.1484C33.7031 18.8828 33.9922 18.6719 34.3203 18.5156C34.6536 18.3594 35.0234 18.2812 35.4297 18.2812ZM40.4766 30.8438C39.3516 30.8438 38.4844 30.6328 37.875 30.2109C37.2656 29.7943 36.9609 29.2083 36.9609 28.4531C36.9609 27.9167 37.1302 27.4583 37.4688 27.0781C37.8125 26.6979 38.2865 26.4453 38.8906 26.3203C38.6667 26.2161 38.474 26.0599 38.3125 25.8516C38.1562 25.6432 38.0781 25.4036 38.0781 25.1328C38.0781 24.8203 38.1641 24.5469 38.3359 24.3125C38.513 24.0729 38.7812 23.8438 39.1406 23.625C38.6927 23.4427 38.3281 23.1354 38.0469 22.7031C37.7708 22.2656 37.6328 21.7578 37.6328 21.1797C37.6328 20.5651 37.7604 20.0417 38.0156 19.6094C38.2708 19.1719 38.6406 18.8385 39.125 18.6094C39.6094 18.3802 40.1953 18.2656 40.8828 18.2656C41.0339 18.2656 41.1849 18.2734 41.3359 18.2891C41.4922 18.2995 41.6406 18.3177 41.7812 18.3438C41.9219 18.3646 42.0443 18.3906 42.1484 18.4219H45.0859V19.2578L43.5078 19.4531C43.6641 19.6562 43.7943 19.901 43.8984 20.1875C44.0026 20.474 44.0547 20.7917 44.0547 21.1406C44.0547 21.9948 43.7656 22.6745 43.1875 23.1797C42.6094 23.6797 41.8151 23.9297 40.8047 23.9297C40.5651 23.9297 40.3203 23.9089 40.0703 23.8672C39.8151 24.0078 39.6198 24.1641 39.4844 24.3359C39.3542 24.5078 39.2891 24.7057 39.2891 24.9297C39.2891 25.0964 39.3385 25.2292 39.4375 25.3281C39.5417 25.4271 39.6901 25.5 39.8828 25.5469C40.0755 25.5885 40.3073 25.6094 40.5781 25.6094H42.0859C43.0182 25.6094 43.7318 25.8047 44.2266 26.1953C44.7266 26.5859 44.9766 27.1562 44.9766 27.9062C44.9766 28.8542 44.5911 29.5807 43.8203 30.0859C43.0495 30.5911 41.9349 30.8438 40.4766 30.8438ZM40.5156 29.8281C41.224 29.8281 41.8099 29.7552 42.2734 29.6094C42.7422 29.4688 43.0911 29.263 43.3203 28.9922C43.5547 28.7266 43.6719 28.4089 43.6719 28.0391C43.6719 27.6953 43.5938 27.4349 43.4375 27.2578C43.2812 27.0859 43.0521 26.9714 42.75 26.9141C42.4479 26.8516 42.0781 26.8203 41.6406 26.8203H40.1562C39.7708 26.8203 39.4349 26.8802 39.1484 27C38.862 27.1198 38.6406 27.2969 38.4844 27.5312C38.3333 27.7656 38.2578 28.0573 38.2578 28.4062C38.2578 28.8698 38.4531 29.2214 38.8438 29.4609C39.2344 29.7057 39.7917 29.8281 40.5156 29.8281ZM40.8516 22.9844C41.4714 22.9844 41.9375 22.8281 42.25 22.5156C42.5625 22.2031 42.7188 21.7474 42.7188 21.1484C42.7188 20.5078 42.5599 20.0286 42.2422 19.7109C41.9245 19.388 41.4557 19.2266 40.8359 19.2266C40.2422 19.2266 39.7839 19.3932 39.4609 19.7266C39.1432 20.0547 38.9844 20.5365 38.9844 21.1719C38.9844 21.7552 39.1458 22.2031 39.4688 22.5156C39.7917 22.8281 40.2526 22.9844 40.8516 22.9844ZM50.0703 18.2812C50.7995 18.2812 51.4245 18.4427 51.9453 18.7656C52.4661 19.0885 52.8646 19.5417 53.1406 20.125C53.4167 20.7031 53.5547 21.3802 53.5547 22.1562V22.9609H47.6406C47.6562 23.9661 47.9062 24.7318 48.3906 25.2578C48.875 25.7839 49.5573 26.0469 50.4375 26.0469C50.9792 26.0469 51.4583 25.9974 51.875 25.8984C52.2917 25.7995 52.724 25.6536 53.1719 25.4609V26.6016C52.7396 26.7943 52.3099 26.9349 51.8828 27.0234C51.4609 27.112 50.9609 27.1562 50.3828 27.1562C49.5599 27.1562 48.8411 26.9896 48.2266 26.6562C47.6172 26.3177 47.1432 25.8229 46.8047 25.1719C46.4661 24.5208 46.2969 23.724 46.2969 22.7812C46.2969 21.8594 46.4505 21.0625 46.7578 20.3906C47.0703 19.7135 47.5078 19.1927 48.0703 18.8281C48.638 18.4635 49.3047 18.2812 50.0703 18.2812ZM50.0547 19.3438C49.362 19.3438 48.8099 19.5703 48.3984 20.0234C47.987 20.4766 47.7422 21.1094 47.6641 21.9219H52.1953C52.1901 21.4115 52.1094 20.9635 51.9531 20.5781C51.8021 20.1875 51.5703 19.8854 51.2578 19.6719C50.9453 19.4531 50.5443 19.3438 50.0547 19.3438ZM59.8125 18.2812C60.8281 18.2812 61.5964 18.5312 62.1172 19.0312C62.638 19.526 62.8984 20.3229 62.8984 21.4219V27H61.6172V21.5078C61.6172 20.7943 61.4531 20.2604 61.125 19.9062C60.8021 19.5521 60.3047 19.375 59.6328 19.375C58.6849 19.375 58.0182 19.6432 57.6328 20.1797C57.2474 20.7161 57.0547 21.4948 57.0547 22.5156V27H55.7578V18.4375H56.8047L57 19.6719H57.0703C57.2526 19.3698 57.4844 19.1172 57.7656 18.9141C58.0469 18.7057 58.362 18.5495 58.7109 18.4453C59.0599 18.3359 59.4271 18.2812 59.8125 18.2812ZM68.3359 26.0938C68.5495 26.0938 68.7682 26.0755 68.9922 26.0391C69.2161 26.0026 69.3984 25.9583 69.5391 25.9062V26.9141C69.388 26.9818 69.1771 27.0391 68.9062 27.0859C68.6406 27.1328 68.3802 27.1562 68.125 27.1562C67.6719 27.1562 67.2604 27.0781 66.8906 26.9219C66.5208 26.7604 66.224 26.4896 66 26.1094C65.7812 25.7292 65.6719 25.2031 65.6719 24.5312V19.4531H64.4531V18.8203L65.6797 18.3125L66.1953 16.4531H66.9766V18.4375H69.4844V19.4531H66.9766V24.4922C66.9766 25.0286 67.099 25.4297 67.3438 25.6953C67.5938 25.9609 67.9245 26.0938 68.3359 26.0938Z" fill="white"/>
<g clip-path="url(#clip0_371_3785)">
<path d="M99.4043 27.755C99.1696 27.7554 98.9411 27.6805 98.7522 27.5414L90.5001 21.4582L82.2481 27.5414C82.1322 27.627 82.0007 27.6889 81.8609 27.7237C81.7211 27.7584 81.5758 27.7653 81.4333 27.7439C81.2908 27.7226 81.154 27.6734 81.0305 27.5992C80.9071 27.525 80.7995 27.4272 80.7138 27.3114C80.6282 27.1957 80.5662 27.0642 80.5315 26.9245C80.4967 26.7848 80.4898 26.6396 80.5112 26.4973C80.5543 26.2097 80.71 25.9511 80.944 25.7783L89.8481 19.2079C90.0368 19.0683 90.2654 18.9929 90.5001 18.9929C90.7349 18.9929 90.9635 19.0683 91.1522 19.2079L100.056 25.7783C100.242 25.9153 100.38 26.1074 100.45 26.3272C100.52 26.5471 100.519 26.7835 100.447 27.0027C100.375 27.2219 100.235 27.4126 100.048 27.5477C99.8604 27.6828 99.6352 27.7554 99.4043 27.755Z" fill="white"/>
<path d="M99.4043 22.0058C99.1696 22.0062 98.9411 21.9314 98.7522 21.7923L90.5002 15.7091L82.2481 21.7923C82.0141 21.9651 81.721 22.0379 81.4333 21.9948C81.1456 21.9517 80.8868 21.7961 80.7138 21.5623C80.5409 21.3285 80.468 21.0356 80.5112 20.7481C80.5543 20.4606 80.71 20.202 80.944 20.0292L89.8481 13.4587C90.0368 13.3191 90.2654 13.2438 90.5002 13.2438C90.7349 13.2438 90.9635 13.3191 91.1522 13.4587L100.056 20.0292C100.242 20.1661 100.38 20.3582 100.45 20.5781C100.52 20.798 100.519 21.0344 100.447 21.2536C100.375 21.4727 100.235 21.6635 100.048 21.7986C99.8604 21.9337 99.6352 22.0062 99.4043 22.0058Z" fill="white"/>
</g>
</g>
<defs>
<filter id="filter0_d_371_3785" x="0" y="0" width="119" height="49" filterUnits="userSpaceOnUse" color-interpolation-filters="sRGB">
<feFlood flood-opacity="0" result="BackgroundImageFix"/>
<feColorMatrix in="SourceAlpha" type="matrix" values="0 0 0 0 0 0 0 0 0 0 0 0 0 0 0 0 0 0 127 0" result="hardAlpha"/>
<feOffset dy="4"/>
<feGaussianBlur stdDeviation="2"/>
<feComposite in2="hardAlpha" operator="out"/>
<feColorMatrix type="matrix" values="0 0 0 0 0 0 0 0 0 0 0 0 0 0 0 0 0 0 0.25 0"/>
<feBlend mode="normal" in2="BackgroundImageFix" result="effect1_dropShadow_371_3785"/>
<feBlend mode="normal" in="SourceGraphic" in2="effect1_dropShadow_371_3785" result="shape"/>
</filter>
<clipPath id="clip0_371_3785">
<rect width="20" height="14.5098" fill="white" transform="translate(80.5 13.2451)"/>
</clipPath>
</defs>
</svg>
