<svg width="119" height="49" viewBox="0 0 119 49" fill="none" xmlns="http://www.w3.org/2000/svg">
<g filter="url(#filter0_d_371_3711)">
<rect x="4" y="4" width="111" height="41" rx="10" fill="white"/>
<path d="M30.5625 31V19.5781H31.8906V29.8125H36.9609V31H30.5625ZM46.1094 26.7031C46.1094 27.4062 46.0182 28.0339 45.8359 28.5859C45.6536 29.138 45.3906 29.6042 45.0469 29.9844C44.7031 30.3646 44.2865 30.6562 43.7969 30.8594C43.3125 31.0573 42.763 31.1562 42.1484 31.1562C41.5755 31.1562 41.0495 31.0573 40.5703 30.8594C40.0964 30.6562 39.6849 30.3646 39.3359 29.9844C38.9922 29.6042 38.724 29.138 38.5312 28.5859C38.3438 28.0339 38.25 27.4062 38.25 26.7031C38.25 25.7656 38.4089 24.9688 38.7266 24.3125C39.0443 23.651 39.4974 23.1484 40.0859 22.8047C40.6797 22.4557 41.3854 22.2812 42.2031 22.2812C42.9844 22.2812 43.6667 22.4557 44.25 22.8047C44.8385 23.1536 45.2943 23.6589 45.6172 24.3203C45.9453 24.9766 46.1094 25.7708 46.1094 26.7031ZM39.5938 26.7031C39.5938 27.3906 39.6849 27.987 39.8672 28.4922C40.0495 28.9974 40.3307 29.388 40.7109 29.6641C41.0911 29.9401 41.5807 30.0781 42.1797 30.0781C42.7734 30.0781 43.2604 29.9401 43.6406 29.6641C44.026 29.388 44.3099 28.9974 44.4922 28.4922C44.6745 27.987 44.7656 27.3906 44.7656 26.7031C44.7656 26.0208 44.6745 25.4323 44.4922 24.9375C44.3099 24.4375 44.0286 24.0521 43.6484 23.7812C43.2682 23.5104 42.776 23.375 42.1719 23.375C41.2812 23.375 40.6276 23.6693 40.2109 24.2578C39.7995 24.8464 39.5938 25.6615 39.5938 26.7031ZM55.3203 30.9844L53.7969 26C53.7292 25.7865 53.6641 25.5781 53.6016 25.375C53.5443 25.1667 53.4896 24.9688 53.4375 24.7812C53.3906 24.5885 53.3464 24.4115 53.3047 24.25C53.2682 24.0833 53.237 23.9401 53.2109 23.8203H53.1562C53.1354 23.9401 53.1068 24.0833 53.0703 24.25C53.0339 24.4115 52.9896 24.5885 52.9375 24.7812C52.8906 24.974 52.8385 25.1771 52.7812 25.3906C52.724 25.599 52.6589 25.8099 52.5859 26.0234L50.9922 30.9844H49.5312L47.1719 22.4219H48.5156L49.75 27.1484C49.8333 27.4609 49.9115 27.7708 49.9844 28.0781C50.0625 28.3802 50.1276 28.6667 50.1797 28.9375C50.237 29.2031 50.2786 29.4349 50.3047 29.6328H50.3672C50.3984 29.5026 50.4323 29.3464 50.4688 29.1641C50.5104 28.9818 50.5547 28.7891 50.6016 28.5859C50.6536 28.3776 50.7083 28.1719 50.7656 27.9688C50.8229 27.7604 50.8802 27.5651 50.9375 27.3828L52.5156 22.4219H53.9141L55.4375 27.375C55.5156 27.625 55.5911 27.8854 55.6641 28.1562C55.7422 28.4271 55.8125 28.6901 55.875 28.9453C55.9375 29.1953 55.9818 29.4193 56.0078 29.6172H56.0703C56.0911 29.4401 56.1302 29.2214 56.1875 28.9609C56.2448 28.7005 56.3099 28.4141 56.3828 28.1016C56.4609 27.7891 56.5417 27.4714 56.625 27.1484L57.875 22.4219H59.1953L56.8281 30.9844H55.3203Z" fill="black"/>
<path d="M80 26.0061C79.7654 26.0065 79.5369 25.9317 79.348 25.7926L70.4449 19.2229C70.3291 19.1373 70.2312 19.0298 70.157 18.9065C70.0827 18.7831 70.0335 18.6464 70.0121 18.504C69.969 18.2166 70.0419 17.9237 70.2148 17.6899C70.3877 17.4562 70.6465 17.3006 70.9342 17.2575C71.2219 17.2144 71.5149 17.2872 71.7489 17.46L80 23.5425L88.2511 17.46C88.367 17.3744 88.4985 17.3125 88.6383 17.2778C88.7781 17.243 88.9234 17.2361 89.0658 17.2575C89.2083 17.2788 89.3451 17.328 89.4685 17.4022C89.592 17.4764 89.6996 17.5742 89.7852 17.6899C89.8708 17.8057 89.9328 17.9372 89.9676 18.0768C90.0023 18.2165 90.0092 18.3617 89.9879 18.504C89.9665 18.6464 89.9173 18.7831 89.843 18.9065C89.7688 19.0298 89.6709 19.1373 89.5551 19.2229L80.652 25.7926C80.4631 25.9317 80.2346 26.0065 80 26.0061Z" fill="#7AE229"/>
<path d="M80 31.7547C79.7654 31.7551 79.5369 31.6802 79.348 31.5412L70.4449 24.9714C70.211 24.7986 70.0553 24.5401 70.0121 24.2526C69.969 23.9651 70.0419 23.6723 70.2148 23.4385C70.3877 23.2047 70.6465 23.0491 70.9342 23.006C71.2219 22.9629 71.5149 23.0358 71.7489 23.2085L80 29.291L88.2511 23.2085C88.4851 23.0358 88.7781 22.9629 89.0658 23.006C89.3535 23.0491 89.6123 23.2047 89.7852 23.4385C89.9581 23.6723 90.031 23.9651 89.9879 24.2526C89.9447 24.5401 89.789 24.7986 89.5551 24.9714L80.652 31.5412C80.4631 31.6802 80.2346 31.7551 80 31.7547Z" fill="#7AE229"/>
</g>
<defs>
<filter id="filter0_d_371_3711" x="0" y="0" width="119" height="49" filterUnits="userSpaceOnUse" color-interpolation-filters="sRGB">
<feFlood flood-opacity="0" result="BackgroundImageFix"/>
<feColorMatrix in="SourceAlpha" type="matrix" values="0 0 0 0 0 0 0 0 0 0 0 0 0 0 0 0 0 0 127 0" result="hardAlpha"/>
<feOffset/>
<feGaussianBlur stdDeviation="2"/>
<feColorMatrix type="matrix" values="0 0 0 0 0 0 0 0 0 0 0 0 0 0 0 0 0 0 0.16 0"/>
<feBlend mode="normal" in2="BackgroundImageFix" result="effect1_dropShadow_371_3711"/>
<feBlend mode="normal" in="SourceGraphic" in2="effect1_dropShadow_371_3711" result="shape"/>
</filter>
</defs>
</svg>
