<svg width="119" height="49" viewBox="0 0 119 49" fill="none" xmlns="http://www.w3.org/2000/svg">
<g filter="url(#filter0_d_371_3843)">
<rect x="4" width="111" height="41" rx="10" fill="#7AE229"/>
<path d="M30.5625 27V15.5781H31.8906V25.8125H36.9609V27H30.5625ZM46.1094 22.7031C46.1094 23.4062 46.0182 24.0339 45.8359 24.5859C45.6536 25.138 45.3906 25.6042 45.0469 25.9844C44.7031 26.3646 44.2865 26.6562 43.7969 26.8594C43.3125 27.0573 42.763 27.1562 42.1484 27.1562C41.5755 27.1562 41.0495 27.0573 40.5703 26.8594C40.0964 26.6562 39.6849 26.3646 39.3359 25.9844C38.9922 25.6042 38.724 25.138 38.5312 24.5859C38.3438 24.0339 38.25 23.4062 38.25 22.7031C38.25 21.7656 38.4089 20.9688 38.7266 20.3125C39.0443 19.651 39.4974 19.1484 40.0859 18.8047C40.6797 18.4557 41.3854 18.2812 42.2031 18.2812C42.9844 18.2812 43.6667 18.4557 44.25 18.8047C44.8385 19.1536 45.2943 19.6589 45.6172 20.3203C45.9453 20.9766 46.1094 21.7708 46.1094 22.7031ZM39.5938 22.7031C39.5938 23.3906 39.6849 23.987 39.8672 24.4922C40.0495 24.9974 40.3307 25.388 40.7109 25.6641C41.0911 25.9401 41.5807 26.0781 42.1797 26.0781C42.7734 26.0781 43.2604 25.9401 43.6406 25.6641C44.026 25.388 44.3099 24.9974 44.4922 24.4922C44.6745 23.987 44.7656 23.3906 44.7656 22.7031C44.7656 22.0208 44.6745 21.4323 44.4922 20.9375C44.3099 20.4375 44.0286 20.0521 43.6484 19.7812C43.2682 19.5104 42.776 19.375 42.1719 19.375C41.2812 19.375 40.6276 19.6693 40.2109 20.2578C39.7995 20.8464 39.5938 21.6615 39.5938 22.7031ZM55.3203 26.9844L53.7969 22C53.7292 21.7865 53.6641 21.5781 53.6016 21.375C53.5443 21.1667 53.4896 20.9688 53.4375 20.7812C53.3906 20.5885 53.3464 20.4115 53.3047 20.25C53.2682 20.0833 53.237 19.9401 53.2109 19.8203H53.1562C53.1354 19.9401 53.1068 20.0833 53.0703 20.25C53.0339 20.4115 52.9896 20.5885 52.9375 20.7812C52.8906 20.974 52.8385 21.1771 52.7812 21.3906C52.724 21.599 52.6589 21.8099 52.5859 22.0234L50.9922 26.9844H49.5312L47.1719 18.4219H48.5156L49.75 23.1484C49.8333 23.4609 49.9115 23.7708 49.9844 24.0781C50.0625 24.3802 50.1276 24.6667 50.1797 24.9375C50.237 25.2031 50.2786 25.4349 50.3047 25.6328H50.3672C50.3984 25.5026 50.4323 25.3464 50.4688 25.1641C50.5104 24.9818 50.5547 24.7891 50.6016 24.5859C50.6536 24.3776 50.7083 24.1719 50.7656 23.9688C50.8229 23.7604 50.8802 23.5651 50.9375 23.3828L52.5156 18.4219H53.9141L55.4375 23.375C55.5156 23.625 55.5911 23.8854 55.6641 24.1562C55.7422 24.4271 55.8125 24.6901 55.875 24.9453C55.9375 25.1953 55.9818 25.4193 56.0078 25.6172H56.0703C56.0911 25.4401 56.1302 25.2214 56.1875 24.9609C56.2448 24.7005 56.3099 24.4141 56.3828 24.1016C56.4609 23.7891 56.5417 23.4714 56.625 23.1484L57.875 18.4219H59.1953L56.8281 26.9844H55.3203Z" fill="white"/>
<path d="M80 22.0061C79.7654 22.0065 79.5369 21.9317 79.348 21.7926L70.4449 15.2229C70.3291 15.1373 70.2312 15.0298 70.157 14.9065C70.0827 14.7831 70.0335 14.6464 70.0121 14.504C69.969 14.2166 70.0419 13.9237 70.2148 13.6899C70.3877 13.4562 70.6465 13.3006 70.9342 13.2575C71.2219 13.2144 71.5149 13.2872 71.7489 13.46L80 19.5425L88.2511 13.46C88.367 13.3744 88.4985 13.3125 88.6383 13.2778C88.7781 13.243 88.9234 13.2361 89.0658 13.2575C89.2083 13.2788 89.3451 13.328 89.4685 13.4022C89.592 13.4764 89.6996 13.5742 89.7852 13.6899C89.8708 13.8057 89.9328 13.9372 89.9676 14.0768C90.0023 14.2165 90.0092 14.3617 89.9879 14.504C89.9665 14.6464 89.9173 14.7831 89.843 14.9065C89.7688 15.0298 89.6709 15.1373 89.5551 15.2229L80.652 21.7926C80.4631 21.9317 80.2346 22.0065 80 22.0061Z" fill="white"/>
<path d="M80 27.7547C79.7654 27.7551 79.5369 27.6802 79.348 27.5412L70.4449 20.9714C70.211 20.7986 70.0553 20.5401 70.0121 20.2526C69.969 19.9651 70.0419 19.6723 70.2148 19.4385C70.3877 19.2047 70.6465 19.0491 70.9342 19.006C71.2219 18.9629 71.5149 19.0358 71.7489 19.2085L80 25.291L88.2511 19.2085C88.4851 19.0358 88.7781 18.9629 89.0658 19.006C89.3535 19.0491 89.6123 19.2047 89.7852 19.4385C89.9581 19.6723 90.031 19.9651 89.9879 20.2526C89.9447 20.5401 89.789 20.7986 89.5551 20.9714L80.652 27.5412C80.4631 27.6802 80.2346 27.7551 80 27.7547Z" fill="white"/>
</g>
<defs>
<filter id="filter0_d_371_3843" x="0" y="0" width="119" height="49" filterUnits="userSpaceOnUse" color-interpolation-filters="sRGB">
<feFlood flood-opacity="0" result="BackgroundImageFix"/>
<feColorMatrix in="SourceAlpha" type="matrix" values="0 0 0 0 0 0 0 0 0 0 0 0 0 0 0 0 0 0 127 0" result="hardAlpha"/>
<feOffset dy="4"/>
<feGaussianBlur stdDeviation="2"/>
<feComposite in2="hardAlpha" operator="out"/>
<feColorMatrix type="matrix" values="0 0 0 0 0 0 0 0 0 0 0 0 0 0 0 0 0 0 0.25 0"/>
<feBlend mode="normal" in2="BackgroundImageFix" result="effect1_dropShadow_371_3843"/>
<feBlend mode="normal" in="SourceGraphic" in2="effect1_dropShadow_371_3843" result="shape"/>
</filter>
</defs>
</svg>
