<svg width="120" height="49" viewBox="0 0 120 49" fill="none" xmlns="http://www.w3.org/2000/svg">
<g filter="url(#filter0_d_371_3704)">
<rect x="4" y="4" width="112" height="41" rx="10" fill="white"/>
<path d="M20.5859 31L16.75 20.8906H16.6875C16.7083 21.1042 16.7266 21.3646 16.7422 21.6719C16.7578 21.9792 16.7708 22.3151 16.7812 22.6797C16.7917 23.0391 16.7969 23.4062 16.7969 23.7812V31H15.5625V19.5781H17.5312L21.1484 29.0781H21.2031L24.875 19.5781H26.8281V31H25.5156V23.6875C25.5156 23.349 25.5208 23.0104 25.5312 22.6719C25.5417 22.3281 25.5547 22.0052 25.5703 21.7031C25.5859 21.3958 25.6016 21.1302 25.6172 20.9062H25.5547L21.6719 31H20.5859ZM33.0547 22.2812C33.7839 22.2812 34.4089 22.4427 34.9297 22.7656C35.4505 23.0885 35.849 23.5417 36.125 24.125C36.401 24.7031 36.5391 25.3802 36.5391 26.1562V26.9609H30.625C30.6406 27.9661 30.8906 28.7318 31.375 29.2578C31.8594 29.7839 32.5417 30.0469 33.4219 30.0469C33.9635 30.0469 34.4427 29.9974 34.8594 29.8984C35.276 29.7995 35.7083 29.6536 36.1562 29.4609V30.6016C35.724 30.7943 35.2943 30.9349 34.8672 31.0234C34.4453 31.112 33.9453 31.1562 33.3672 31.1562C32.5443 31.1562 31.8255 30.9896 31.2109 30.6562C30.6016 30.3177 30.1276 29.8229 29.7891 29.1719C29.4505 28.5208 29.2812 27.724 29.2812 26.7812C29.2812 25.8594 29.4349 25.0625 29.7422 24.3906C30.0547 23.7135 30.4922 23.1927 31.0547 22.8281C31.6224 22.4635 32.2891 22.2812 33.0547 22.2812ZM33.0391 23.3438C32.3464 23.3438 31.7943 23.5703 31.3828 24.0234C30.9714 24.4766 30.7266 25.1094 30.6484 25.9219H35.1797C35.1745 25.4115 35.0938 24.9635 34.9375 24.5781C34.7865 24.1875 34.5547 23.8854 34.2422 23.6719C33.9297 23.4531 33.5286 23.3438 33.0391 23.3438ZM41.7891 31.1562C40.7057 31.1562 39.8464 30.7865 39.2109 30.0469C38.5807 29.3073 38.2656 28.2083 38.2656 26.75C38.2656 25.276 38.5885 24.1641 39.2344 23.4141C39.8802 22.6589 40.7396 22.2812 41.8125 22.2812C42.2656 22.2812 42.6615 22.3411 43 22.4609C43.3385 22.5807 43.6302 22.7422 43.875 22.9453C44.1198 23.1432 44.3255 23.3698 44.4922 23.625H44.5859C44.5651 23.4635 44.5443 23.2422 44.5234 22.9609C44.5026 22.6797 44.4922 22.4505 44.4922 22.2734V18.8438H45.7891V31H44.7422L44.5469 29.7812H44.4922C44.3307 30.0365 44.125 30.2682 43.875 30.4766C43.6302 30.6849 43.3359 30.8516 42.9922 30.9766C42.6536 31.0964 42.2526 31.1562 41.7891 31.1562ZM41.9922 30.0781C42.9089 30.0781 43.5573 29.8177 43.9375 29.2969C44.3177 28.776 44.5078 28.0026 44.5078 26.9766V26.7422C44.5078 25.6536 44.3255 24.8177 43.9609 24.2344C43.6016 23.651 42.9453 23.3594 41.9922 23.3594C41.1953 23.3594 40.599 23.6667 40.2031 24.2812C39.8073 24.8906 39.6094 25.724 39.6094 26.7812C39.6094 27.8333 39.8047 28.6458 40.1953 29.2188C40.5911 29.7917 41.1901 30.0781 41.9922 30.0781ZM49.8359 22.4375V31H48.5391V22.4375H49.8359ZM49.2031 19.2344C49.4167 19.2344 49.599 19.3047 49.75 19.4453C49.9062 19.5807 49.9844 19.7943 49.9844 20.0859C49.9844 20.3724 49.9062 20.5859 49.75 20.7266C49.599 20.8672 49.4167 20.9375 49.2031 20.9375C48.9792 20.9375 48.7917 20.8672 48.6406 20.7266C48.4948 20.5859 48.4219 20.3724 48.4219 20.0859C48.4219 19.7943 48.4948 19.5807 48.6406 19.4453C48.7917 19.3047 48.9792 19.2344 49.2031 19.2344ZM59.6562 22.4375V31H58.5938L58.4062 29.7969H58.3359C58.1589 30.0938 57.9297 30.3438 57.6484 30.5469C57.3672 30.75 57.0495 30.901 56.6953 31C56.3464 31.1042 55.974 31.1562 55.5781 31.1562C54.901 31.1562 54.3333 31.0469 53.875 30.8281C53.4167 30.6094 53.0703 30.2708 52.8359 29.8125C52.6068 29.3542 52.4922 28.7656 52.4922 28.0469V22.4375H53.8047V27.9531C53.8047 28.6667 53.9661 29.2005 54.2891 29.5547C54.612 29.9036 55.1042 30.0781 55.7656 30.0781C56.401 30.0781 56.9062 29.9583 57.2812 29.7188C57.6615 29.4792 57.9349 29.1276 58.1016 28.6641C58.2682 28.1953 58.3516 27.6224 58.3516 26.9453V22.4375H59.6562ZM71.6953 22.2812C72.638 22.2812 73.349 22.5286 73.8281 23.0234C74.3073 23.513 74.5469 24.3021 74.5469 25.3906V31H73.2656V25.4531C73.2656 24.7604 73.1146 24.2422 72.8125 23.8984C72.5156 23.5495 72.0729 23.375 71.4844 23.375C70.6562 23.375 70.0547 23.6146 69.6797 24.0938C69.3047 24.5729 69.1172 25.2786 69.1172 26.2109V31H67.8281V25.4531C67.8281 24.9896 67.7604 24.6042 67.625 24.2969C67.4948 23.9896 67.2969 23.7604 67.0312 23.6094C66.7708 23.4531 66.4401 23.375 66.0391 23.375C65.4714 23.375 65.0156 23.4922 64.6719 23.7266C64.3281 23.9609 64.0781 24.3099 63.9219 24.7734C63.7708 25.2318 63.6953 25.7969 63.6953 26.4688V31H62.3984V22.4375H63.4453L63.6406 23.6484H63.7109C63.8828 23.3516 64.099 23.1016 64.3594 22.8984C64.6198 22.6953 64.9115 22.5417 65.2344 22.4375C65.5573 22.3333 65.901 22.2812 66.2656 22.2812C66.9167 22.2812 67.4609 22.4036 67.8984 22.6484C68.3411 22.888 68.6615 23.2552 68.8594 23.75H68.9297C69.2109 23.2552 69.5964 22.888 70.0859 22.6484C70.5755 22.4036 71.112 22.2812 71.6953 22.2812Z" fill="black"/>
<g clip-path="url(#clip0_371_3704)">
<path d="M104.904 28.2255H87.0959C86.8052 28.2255 86.5265 28.1092 86.321 27.9022C86.1155 27.6952 86 27.4144 86 27.1217C86 26.8289 86.1155 26.5481 86.321 26.3411C86.5265 26.1341 86.8052 26.0178 87.0959 26.0178H104.904C105.195 26.0178 105.474 26.1341 105.679 26.3411C105.885 26.5481 106 26.8289 106 27.1217C106 27.4144 105.885 27.6952 105.679 27.9022C105.474 28.1092 105.195 28.2255 104.904 28.2255Z" fill="#FFA800"/>
<path d="M104.904 22.9822H87.0959C86.8052 22.9822 86.5265 22.8659 86.321 22.6589C86.1155 22.4519 86 22.1711 86 21.8784C86 21.5856 86.1155 21.3049 86.321 21.0978C86.5265 20.8908 86.8052 20.7745 87.0959 20.7745H104.904C105.195 20.7745 105.474 20.8908 105.679 21.0978C105.885 21.3049 106 21.5856 106 21.8784C106 22.1711 105.885 22.4519 105.679 22.6589C105.474 22.8659 105.195 22.9822 104.904 22.9822Z" fill="#FFA800"/>
</g>
</g>
<defs>
<filter id="filter0_d_371_3704" x="0" y="0" width="120" height="49" filterUnits="userSpaceOnUse" color-interpolation-filters="sRGB">
<feFlood flood-opacity="0" result="BackgroundImageFix"/>
<feColorMatrix in="SourceAlpha" type="matrix" values="0 0 0 0 0 0 0 0 0 0 0 0 0 0 0 0 0 0 127 0" result="hardAlpha"/>
<feOffset/>
<feGaussianBlur stdDeviation="2"/>
<feColorMatrix type="matrix" values="0 0 0 0 0 0 0 0 0 0 0 0 0 0 0 0 0 0 0.16 0"/>
<feBlend mode="normal" in2="BackgroundImageFix" result="effect1_dropShadow_371_3704"/>
<feBlend mode="normal" in="SourceGraphic" in2="effect1_dropShadow_371_3704" result="shape"/>
</filter>
<clipPath id="clip0_371_3704">
<rect width="20" height="7.45098" fill="white" transform="translate(86 20.7745)"/>
</clipPath>
</defs>
</svg>
