<svg width="31" height="31" viewBox="0 0 31 31" fill="none" xmlns="http://www.w3.org/2000/svg">
<path d="M24 28.0032H2V6.00317H14.22C14.7723 6.00317 15.22 5.55546 15.22 5.00317C15.22 4.45089 14.7723 4.00317 14.22 4.00317H2C1.46957 4.00317 0.960859 4.21389 0.585786 4.58896C0.210714 4.96403 0 5.47274 0 6.00317V28.0032C0 28.5336 0.210714 29.0423 0.585786 29.4174C0.960859 29.7925 1.46957 30.0032 2 30.0032H24C24.5304 30.0032 25.0391 29.7925 25.4142 29.4174C25.7893 29.0423 26 28.5336 26 28.0032V16.0032C26 15.4509 25.5523 15.0032 25 15.0032C24.4477 15.0032 24 15.4509 24 16.0032V28.0032Z" fill="#42526E"/>
<path d="M29.53 3.84312L26.16 0.473118C26.0104 0.323149 25.8327 0.204162 25.6371 0.122976C25.4415 0.04179 25.2318 0 25.02 0C24.8082 0 24.5985 0.04179 24.4028 0.122976C24.2072 0.204162 24.0295 0.323149 23.88 0.473118L10.7733 13.6563C10.3789 14.0529 10.1033 14.5519 9.97758 15.0969L9.05999 19.0731C9.0127 19.3063 9.01767 19.547 9.07455 19.778C9.13142 20.009 9.23878 20.2246 9.38891 20.4091C9.53904 20.5937 9.72821 20.7427 9.9428 20.8454C10.1574 20.9481 10.3921 21.002 10.63 21.0031C10.7529 21.0167 10.877 21.0167 11 21.0031L14.9869 20.1235C15.5503 19.9992 16.0659 19.7151 16.472 19.3052L29.53 6.12312C29.68 5.97356 29.7989 5.79588 29.8801 5.60026C29.9613 5.40464 30.0031 5.19492 30.0031 4.98312C30.0031 4.77132 29.9613 4.5616 29.8801 4.36598C29.7989 4.17036 29.68 3.99268 29.53 3.84312ZM14.81 18.0831L11.15 18.8931L12 15.2631L22.32 4.87312L25.14 7.69312L14.81 18.0831ZM26.27 6.56312L23.45 3.74312L25 2.16312L27.84 5.00312L26.27 6.56312Z" fill="#42526E"/>
</svg>
