<svg width="32" height="41" viewBox="0 0 32 41" fill="none" xmlns="http://www.w3.org/2000/svg">
<path d="M22.927 0.992065H15.8389V9.14684H22.927V0.992065Z" fill="#4589FF"/>
<path d="M15.8392 15.7791H22.9273V27.2801C22.9597 30.0475 22.1721 32.7622 20.6646 35.0789C19.1761 37.3298 16.3027 40.0079 10.9866 40.0079C5.19613 40.0079 1.8211 37.2695 0 35.7689L4.47096 30.2539C6.24844 31.7052 7.96049 32.8991 11.0138 32.8991C13.3256 32.8991 14.2471 31.9572 14.7869 31.1357C15.5207 29.9946 15.9003 28.6602 15.8774 27.302L15.8392 15.7791Z" fill="#4589FF"/>
<path d="M12.2239 10.6309H5.13574V17.7505H12.2239V10.6309Z" fill="#4589FF"/>
<path d="M26.6409 36.6669C26.6409 38.1839 25.8721 38.9999 24.798 38.9999C23.7239 38.9999 23.0205 38.0306 23.0205 36.7435C23.0205 35.4565 23.7457 34.4379 24.858 34.4379C25.9703 34.4379 26.6409 35.4401 26.6409 36.6669ZM23.8438 36.7271C23.8438 37.6417 24.2091 38.3154 24.8362 38.3154C25.4632 38.3154 25.8176 37.6034 25.8176 36.6724C25.8176 35.8563 25.4904 35.0896 24.8362 35.0896C24.1819 35.0896 23.8438 35.8289 23.8438 36.7271Z" fill="#4589FF"/>
<path d="M28.0474 34.504V38.9292H27.2622V34.504H28.0474Z" fill="#4589FF"/>
<path d="M28.8975 38.9292V34.504H29.7698L30.7077 36.3278C30.9491 36.8046 31.1639 37.2946 31.351 37.7955C31.302 37.2478 31.2802 36.618 31.2802 35.917V34.504H31.9999V38.9292H31.1875L30.2387 37.0671C29.9876 36.578 29.7637 36.0752 29.5681 35.561C29.5681 36.1087 29.6063 36.7276 29.6063 37.4888V38.9237L28.8975 38.9292Z" fill="#4589FF"/>
</svg>
