<svg width="1080" height="1080" viewBox="0 0 1080 1080" fill="none" xmlns="http://www.w3.org/2000/svg">
<path d="M982.5 540C982.5 541.83 982.5 543.66 982.5 545.49C979.57 787.35 782.6 982.49 540.04 982.49H539.1C501.856 982.437 464.768 977.693 428.71 968.37C426.93 967.91 425.157 967.437 423.39 966.95C235.56 915.78 97.5 744 97.5 540C97.5 295.61 295.61 97.5 540 97.5C730.33 97.5 892.58 217.66 955.05 386.24C956.383 389.9 957.69 393.567 958.97 397.24L959.97 400.36C974.931 445.394 982.539 492.545 982.5 540Z" fill="#4589FF"/>
<path d="M982.5 540C982.5 541.83 982.5 543.66 982.5 545.49C979.57 787.35 782.6 982.49 540.04 982.49H539.1C522.654 982.465 506.222 981.527 489.88 979.68L235.81 746C235.81 746 687 576 699.82 563C712.64 550 711.82 251.13 711.82 251.13L799.32 252.48L955.05 386.24C956.383 389.9 957.69 393.567 958.97 397.24L959.97 400.36C974.931 445.394 982.539 492.545 982.5 540Z" fill="#005DFF"/>
<path d="M246.25 674H362.37C365.138 674 367.794 675.1 369.752 677.058C371.71 679.016 372.81 681.671 372.81 684.44V746H235.81V684.44C235.81 681.671 236.909 679.016 238.867 677.058C240.825 675.1 243.481 674 246.25 674Z" fill="white"/>
<path d="M389.45 563H493.16C497.573 563 501.805 564.753 504.926 567.874C508.047 570.994 509.8 575.227 509.8 579.64V746H372.8V579.64C372.8 577.454 373.231 575.289 374.067 573.27C374.904 571.25 376.131 569.415 377.677 567.87C379.223 566.325 381.059 565.099 383.079 564.264C385.099 563.428 387.264 562.999 389.45 563Z" fill="white"/>
<path d="M530.94 451H625.68C631.284 451 636.658 453.226 640.621 457.189C644.583 461.151 646.81 466.526 646.81 472.13V746H509.81V472.13C509.81 466.526 512.036 461.151 515.998 457.189C519.961 453.226 525.336 451 530.94 451Z" fill="white"/>
<path d="M671.81 381H758.81C765.44 381 771.799 383.634 776.488 388.322C781.176 393.011 783.81 399.37 783.81 406V744.51C783.81 744.905 783.653 745.284 783.374 745.564C783.094 745.843 782.715 746 782.32 746H648.32C647.925 746 647.546 745.843 647.266 745.564C646.987 745.284 646.83 744.905 646.83 744.51V406C646.83 399.373 649.461 393.017 654.145 388.329C658.829 383.642 665.183 381.005 671.81 381Z" fill="white"/>
<path d="M436.8 540C436.8 540 436.64 537.83 436.47 534" stroke="white" stroke-width="6.88" stroke-linecap="round" stroke-linejoin="round"/>
<path d="M436.13 522C435.46 469.61 443.59 326.09 559.87 413.7" stroke="white" stroke-width="6.88" stroke-linecap="round" stroke-linejoin="round" stroke-dasharray="11.99 11.99"/>
<path d="M564.63 417.4C566.17 418.613 567.73 419.867 569.31 421.16C569.31 421.16 569.31 418.98 569.36 415.16" stroke="white" stroke-width="6.88" stroke-linecap="round" stroke-linejoin="round"/>
<path d="M569.9 402.83C571.57 376.14 577.84 326.91 601.22 300.5C632.34 265.35 679.22 283.88 698.45 341.79" stroke="white" stroke-width="6.88" stroke-linecap="round" stroke-linejoin="round" stroke-dasharray="12.35 12.35"/>
<path d="M700.27 347.69C700.81 349.59 701.323 351.523 701.81 353.49" stroke="white" stroke-width="6.88" stroke-linecap="round" stroke-linejoin="round"/>
<path d="M304.3 654.5C304.3 654.5 294.15 416 436.8 540" stroke="white" stroke-width="6.88" stroke-linecap="round" stroke-linejoin="round"/>
<path d="M715.31 415.95V251.13" stroke="white" stroke-width="7" stroke-linecap="round" stroke-linejoin="round"/>
<path d="M778.81 279L799.31 252.48C799.485 252.252 799.593 251.98 799.622 251.693C799.651 251.407 799.599 251.118 799.472 250.86C799.345 250.602 799.148 250.385 798.904 250.233C798.659 250.081 798.377 250 798.09 250L712.81 250.13V308.36H798.66C798.947 308.36 799.229 308.279 799.473 308.126C799.716 307.974 799.912 307.755 800.037 307.496C800.163 307.237 800.213 306.949 800.181 306.663C800.15 306.377 800.038 306.105 799.86 305.88L778.81 279Z" fill="white"/>
<path d="M646.81 478.93V746" stroke="#42526E" stroke-width="10" stroke-linecap="round" stroke-linejoin="round"/>
<path d="M509.81 584.93V746" stroke="#42526E" stroke-width="10" stroke-linecap="round" stroke-linejoin="round"/>
<path d="M372.81 692V746" stroke="#42526E" stroke-width="10" stroke-linecap="round" stroke-linejoin="round"/>
</svg>
