<svg width="144" height="45" viewBox="0 0 144 45" fill="none" xmlns="http://www.w3.org/2000/svg">
<g filter="url(#filter0_d_606_4039)">
<rect x="4" y="4" width="136" height="37" rx="18.5" fill="#CBFFC2"/>
<path d="M43.0625 29V17.5781H44.3906V27.8125H49.4609V29H43.0625ZM58.6094 24.7031C58.6094 25.4062 58.5182 26.0339 58.3359 26.5859C58.1536 27.138 57.8906 27.6042 57.5469 27.9844C57.2031 28.3646 56.7865 28.6562 56.2969 28.8594C55.8125 29.0573 55.263 29.1562 54.6484 29.1562C54.0755 29.1562 53.5495 29.0573 53.0703 28.8594C52.5964 28.6562 52.1849 28.3646 51.8359 27.9844C51.4922 27.6042 51.224 27.138 51.0312 26.5859C50.8438 26.0339 50.75 25.4062 50.75 24.7031C50.75 23.7656 50.9089 22.9688 51.2266 22.3125C51.5443 21.651 51.9974 21.1484 52.5859 20.8047C53.1797 20.4557 53.8854 20.2812 54.7031 20.2812C55.4844 20.2812 56.1667 20.4557 56.75 20.8047C57.3385 21.1536 57.7943 21.6589 58.1172 22.3203C58.4453 22.9766 58.6094 23.7708 58.6094 24.7031ZM52.0938 24.7031C52.0938 25.3906 52.1849 25.987 52.3672 26.4922C52.5495 26.9974 52.8307 27.388 53.2109 27.6641C53.5911 27.9401 54.0807 28.0781 54.6797 28.0781C55.2734 28.0781 55.7604 27.9401 56.1406 27.6641C56.526 27.388 56.8099 26.9974 56.9922 26.4922C57.1745 25.987 57.2656 25.3906 57.2656 24.7031C57.2656 24.0208 57.1745 23.4323 56.9922 22.9375C56.8099 22.4375 56.5286 22.0521 56.1484 21.7812C55.7682 21.5104 55.276 21.375 54.6719 21.375C53.7812 21.375 53.1276 21.6693 52.7109 22.2578C52.2995 22.8464 52.0938 23.6615 52.0938 24.7031ZM67.8203 28.9844L66.2969 24C66.2292 23.7865 66.1641 23.5781 66.1016 23.375C66.0443 23.1667 65.9896 22.9688 65.9375 22.7812C65.8906 22.5885 65.8464 22.4115 65.8047 22.25C65.7682 22.0833 65.737 21.9401 65.7109 21.8203H65.6562C65.6354 21.9401 65.6068 22.0833 65.5703 22.25C65.5339 22.4115 65.4896 22.5885 65.4375 22.7812C65.3906 22.974 65.3385 23.1771 65.2812 23.3906C65.224 23.599 65.1589 23.8099 65.0859 24.0234L63.4922 28.9844H62.0312L59.6719 20.4219H61.0156L62.25 25.1484C62.3333 25.4609 62.4115 25.7708 62.4844 26.0781C62.5625 26.3802 62.6276 26.6667 62.6797 26.9375C62.737 27.2031 62.7786 27.4349 62.8047 27.6328H62.8672C62.8984 27.5026 62.9323 27.3464 62.9688 27.1641C63.0104 26.9818 63.0547 26.7891 63.1016 26.5859C63.1536 26.3776 63.2083 26.1719 63.2656 25.9688C63.3229 25.7604 63.3802 25.5651 63.4375 25.3828L65.0156 20.4219H66.4141L67.9375 25.375C68.0156 25.625 68.0911 25.8854 68.1641 26.1562C68.2422 26.4271 68.3125 26.6901 68.375 26.9453C68.4375 27.1953 68.4818 27.4193 68.5078 27.6172H68.5703C68.5911 27.4401 68.6302 27.2214 68.6875 26.9609C68.7448 26.7005 68.8099 26.4141 68.8828 26.1016C68.9609 25.7891 69.0417 25.4714 69.125 25.1484L70.375 20.4219H71.6953L69.3281 28.9844H67.8203Z" fill="black"/>
<path d="M92.5 24.0061C92.2654 24.0065 92.0369 23.9317 91.848 23.7926L82.9449 17.2229C82.8291 17.1373 82.7312 17.0298 82.657 16.9065C82.5827 16.7831 82.5335 16.6464 82.5121 16.504C82.469 16.2165 82.5419 15.9237 82.7148 15.6899C82.8877 15.4562 83.1465 15.3006 83.4342 15.2575C83.7219 15.2144 84.0149 15.2872 84.2489 15.46L92.5 21.5425L100.751 15.46C100.867 15.3744 100.999 15.3125 101.138 15.2778C101.278 15.243 101.423 15.2361 101.566 15.2575C101.708 15.2788 101.845 15.328 101.969 15.4022C102.092 15.4764 102.2 15.5742 102.285 15.6899C102.371 15.8057 102.433 15.9372 102.468 16.0768C102.502 16.2165 102.509 16.3617 102.488 16.504C102.466 16.6464 102.417 16.7831 102.343 16.9065C102.269 17.0298 102.171 17.1373 102.055 17.2229L93.152 23.7926C92.9631 23.9317 92.7346 24.0065 92.5 24.0061Z" fill="#02CF2F"/>
<path d="M92.5 29.7547C92.2654 29.7551 92.0369 29.6802 91.848 29.5411L82.9449 22.9714C82.711 22.7986 82.5553 22.54 82.5121 22.2526C82.469 21.9651 82.5419 21.6722 82.7148 21.4385C82.8877 21.2047 83.1465 21.0491 83.4342 21.006C83.7219 20.9629 84.0149 21.0357 84.2489 21.2085L92.5 27.291L100.751 21.2085C100.985 21.0357 101.278 20.9629 101.566 21.006C101.854 21.0491 102.112 21.2047 102.285 21.4385C102.458 21.6722 102.531 21.9651 102.488 22.2526C102.445 22.54 102.289 22.7986 102.055 22.9714L93.152 29.5411C92.9631 29.6802 92.7346 29.7551 92.5 29.7547Z" fill="#02CF2F"/>
</g>
<defs>
<filter id="filter0_d_606_4039" x="0" y="0" width="144" height="45" filterUnits="userSpaceOnUse" color-interpolation-filters="sRGB">
<feFlood flood-opacity="0" result="BackgroundImageFix"/>
<feColorMatrix in="SourceAlpha" type="matrix" values="0 0 0 0 0 0 0 0 0 0 0 0 0 0 0 0 0 0 127 0" result="hardAlpha"/>
<feOffset/>
<feGaussianBlur stdDeviation="2"/>
<feColorMatrix type="matrix" values="0 0 0 0 0 0 0 0 0 0 0 0 0 0 0 0 0 0 0.1 0"/>
<feBlend mode="normal" in2="BackgroundImageFix" result="effect1_dropShadow_606_4039"/>
<feBlend mode="normal" in="SourceGraphic" in2="effect1_dropShadow_606_4039" result="shape"/>
</filter>
</defs>
</svg>
