<svg width="144" height="45" viewBox="0 0 144 45" fill="none" xmlns="http://www.w3.org/2000/svg">
<g filter="url(#filter0_d_606_4032)">
<rect x="4" y="4" width="136" height="37" rx="18.5" fill="#FFEBB9"/>
<path d="M32.5859 29L28.75 18.8906H28.6875C28.7083 19.1042 28.7266 19.3646 28.7422 19.6719C28.7578 19.9792 28.7708 20.3151 28.7812 20.6797C28.7917 21.0391 28.7969 21.4062 28.7969 21.7812V29H27.5625V17.5781H29.5312L33.1484 27.0781H33.2031L36.875 17.5781H38.8281V29H37.5156V21.6875C37.5156 21.349 37.5208 21.0104 37.5312 20.6719C37.5417 20.3281 37.5547 20.0052 37.5703 19.7031C37.5859 19.3958 37.6016 19.1302 37.6172 18.9062H37.5547L33.6719 29H32.5859ZM45.0547 20.2812C45.7839 20.2812 46.4089 20.4427 46.9297 20.7656C47.4505 21.0885 47.849 21.5417 48.125 22.125C48.401 22.7031 48.5391 23.3802 48.5391 24.1562V24.9609H42.625C42.6406 25.9661 42.8906 26.7318 43.375 27.2578C43.8594 27.7839 44.5417 28.0469 45.4219 28.0469C45.9635 28.0469 46.4427 27.9974 46.8594 27.8984C47.276 27.7995 47.7083 27.6536 48.1562 27.4609V28.6016C47.724 28.7943 47.2943 28.9349 46.8672 29.0234C46.4453 29.112 45.9453 29.1562 45.3672 29.1562C44.5443 29.1562 43.8255 28.9896 43.2109 28.6562C42.6016 28.3177 42.1276 27.8229 41.7891 27.1719C41.4505 26.5208 41.2812 25.724 41.2812 24.7812C41.2812 23.8594 41.4349 23.0625 41.7422 22.3906C42.0547 21.7135 42.4922 21.1927 43.0547 20.8281C43.6224 20.4635 44.2891 20.2812 45.0547 20.2812ZM45.0391 21.3438C44.3464 21.3438 43.7943 21.5703 43.3828 22.0234C42.9714 22.4766 42.7266 23.1094 42.6484 23.9219H47.1797C47.1745 23.4115 47.0938 22.9635 46.9375 22.5781C46.7865 22.1875 46.5547 21.8854 46.2422 21.6719C45.9297 21.4531 45.5286 21.3438 45.0391 21.3438ZM53.7891 29.1562C52.7057 29.1562 51.8464 28.7865 51.2109 28.0469C50.5807 27.3073 50.2656 26.2083 50.2656 24.75C50.2656 23.276 50.5885 22.1641 51.2344 21.4141C51.8802 20.6589 52.7396 20.2812 53.8125 20.2812C54.2656 20.2812 54.6615 20.3411 55 20.4609C55.3385 20.5807 55.6302 20.7422 55.875 20.9453C56.1198 21.1432 56.3255 21.3698 56.4922 21.625H56.5859C56.5651 21.4635 56.5443 21.2422 56.5234 20.9609C56.5026 20.6797 56.4922 20.4505 56.4922 20.2734V16.8438H57.7891V29H56.7422L56.5469 27.7812H56.4922C56.3307 28.0365 56.125 28.2682 55.875 28.4766C55.6302 28.6849 55.3359 28.8516 54.9922 28.9766C54.6536 29.0964 54.2526 29.1562 53.7891 29.1562ZM53.9922 28.0781C54.9089 28.0781 55.5573 27.8177 55.9375 27.2969C56.3177 26.776 56.5078 26.0026 56.5078 24.9766V24.7422C56.5078 23.6536 56.3255 22.8177 55.9609 22.2344C55.6016 21.651 54.9453 21.3594 53.9922 21.3594C53.1953 21.3594 52.599 21.6667 52.2031 22.2812C51.8073 22.8906 51.6094 23.724 51.6094 24.7812C51.6094 25.8333 51.8047 26.6458 52.1953 27.2188C52.5911 27.7917 53.1901 28.0781 53.9922 28.0781ZM61.8359 20.4375V29H60.5391V20.4375H61.8359ZM61.2031 17.2344C61.4167 17.2344 61.599 17.3047 61.75 17.4453C61.9062 17.5807 61.9844 17.7943 61.9844 18.0859C61.9844 18.3724 61.9062 18.5859 61.75 18.7266C61.599 18.8672 61.4167 18.9375 61.2031 18.9375C60.9792 18.9375 60.7917 18.8672 60.6406 18.7266C60.4948 18.5859 60.4219 18.3724 60.4219 18.0859C60.4219 17.7943 60.4948 17.5807 60.6406 17.4453C60.7917 17.3047 60.9792 17.2344 61.2031 17.2344ZM71.6562 20.4375V29H70.5938L70.4062 27.7969H70.3359C70.1589 28.0938 69.9297 28.3438 69.6484 28.5469C69.3672 28.75 69.0495 28.901 68.6953 29C68.3464 29.1042 67.974 29.1562 67.5781 29.1562C66.901 29.1562 66.3333 29.0469 65.875 28.8281C65.4167 28.6094 65.0703 28.2708 64.8359 27.8125C64.6068 27.3542 64.4922 26.7656 64.4922 26.0469V20.4375H65.8047V25.9531C65.8047 26.6667 65.9661 27.2005 66.2891 27.5547C66.612 27.9036 67.1042 28.0781 67.7656 28.0781C68.401 28.0781 68.9062 27.9583 69.2812 27.7188C69.6615 27.4792 69.9349 27.1276 70.1016 26.6641C70.2682 26.1953 70.3516 25.6224 70.3516 24.9453V20.4375H71.6562ZM83.6953 20.2812C84.638 20.2812 85.349 20.5286 85.8281 21.0234C86.3073 21.513 86.5469 22.3021 86.5469 23.3906V29H85.2656V23.4531C85.2656 22.7604 85.1146 22.2422 84.8125 21.8984C84.5156 21.5495 84.0729 21.375 83.4844 21.375C82.6562 21.375 82.0547 21.6146 81.6797 22.0938C81.3047 22.5729 81.1172 23.2786 81.1172 24.2109V29H79.8281V23.4531C79.8281 22.9896 79.7604 22.6042 79.625 22.2969C79.4948 21.9896 79.2969 21.7604 79.0312 21.6094C78.7708 21.4531 78.4401 21.375 78.0391 21.375C77.4714 21.375 77.0156 21.4922 76.6719 21.7266C76.3281 21.9609 76.0781 22.3099 75.9219 22.7734C75.7708 23.2318 75.6953 23.7969 75.6953 24.4688V29H74.3984V20.4375H75.4453L75.6406 21.6484H75.7109C75.8828 21.3516 76.099 21.1016 76.3594 20.8984C76.6198 20.6953 76.9115 20.5417 77.2344 20.4375C77.5573 20.3333 77.901 20.2812 78.2656 20.2812C78.9167 20.2812 79.4609 20.4036 79.8984 20.6484C80.3411 20.888 80.6615 21.2552 80.8594 21.75H80.9297C81.2109 21.2552 81.5964 20.888 82.0859 20.6484C82.5755 20.4036 83.112 20.2812 83.6953 20.2812Z" fill="black"/>
<g clip-path="url(#clip0_606_4032)">
<path d="M116.904 26.2255H99.0959C98.8052 26.2255 98.5265 26.1092 98.321 25.9022C98.1155 25.6952 98 25.4144 98 25.1216C98 24.8289 98.1155 24.5481 98.321 24.3411C98.5265 24.1341 98.8052 24.0178 99.0959 24.0178H116.904C117.195 24.0178 117.474 24.1341 117.679 24.3411C117.885 24.5481 118 24.8289 118 25.1216C118 25.4144 117.885 25.6952 117.679 25.9022C117.474 26.1092 117.195 26.2255 116.904 26.2255Z" fill="#FF7A00"/>
<path d="M116.904 20.9822H99.0959C98.8052 20.9822 98.5265 20.8659 98.321 20.6589C98.1155 20.4519 98 20.1711 98 19.8784C98 19.5856 98.1155 19.3048 98.321 19.0978C98.5265 18.8908 98.8052 18.7745 99.0959 18.7745H116.904C117.195 18.7745 117.474 18.8908 117.679 19.0978C117.885 19.3048 118 19.5856 118 19.8784C118 20.1711 117.885 20.4519 117.679 20.6589C117.474 20.8659 117.195 20.9822 116.904 20.9822Z" fill="#FF7A00"/>
</g>
</g>
<defs>
<filter id="filter0_d_606_4032" x="0" y="0" width="144" height="45" filterUnits="userSpaceOnUse" color-interpolation-filters="sRGB">
<feFlood flood-opacity="0" result="BackgroundImageFix"/>
<feColorMatrix in="SourceAlpha" type="matrix" values="0 0 0 0 0 0 0 0 0 0 0 0 0 0 0 0 0 0 127 0" result="hardAlpha"/>
<feOffset/>
<feGaussianBlur stdDeviation="2"/>
<feColorMatrix type="matrix" values="0 0 0 0 0 0 0 0 0 0 0 0 0 0 0 0 0 0 0.1 0"/>
<feBlend mode="normal" in2="BackgroundImageFix" result="effect1_dropShadow_606_4032"/>
<feBlend mode="normal" in="SourceGraphic" in2="effect1_dropShadow_606_4032" result="shape"/>
</filter>
<clipPath id="clip0_606_4032">
<rect width="20" height="7.45098" fill="white" transform="translate(98 18.7745)"/>
</clipPath>
</defs>
</svg>
