<svg width="1080" height="1080" viewBox="0 0 1080 1080" fill="none" xmlns="http://www.w3.org/2000/svg">
<path d="M982.5 540C982.504 556.005 981.646 571.998 979.93 587.91C956.05 809.77 768.2 982.5 540 982.5C529.72 982.5 519.523 982.167 509.41 981.5C482.15 979.646 455.121 975.267 428.67 968.42C426.89 967.96 425.117 967.487 423.35 967C235.56 915.78 97.5 744 97.5 540C97.5 295.61 295.61 97.5 540 97.5C734.45 97.5 899.6 222.92 959 397.27L960 400.39C974.948 445.417 982.545 492.557 982.5 540Z" fill="#4589FF"/>
<path d="M979.93 587.91C956.05 809.77 768.2 982.5 540 982.5C529.72 982.5 519.524 982.167 509.41 981.5L314.69 772L728.5 314.72L979.93 587.91Z" fill="#005DFF"/>
<path d="M346.648 295.977L301.209 753.647C300.334 762.462 306.77 770.318 315.586 771.193L678.72 807.247C687.535 808.122 695.391 801.685 696.266 792.87L741.706 335.2C742.581 326.385 736.144 318.529 727.329 317.654L364.195 281.6C355.379 280.725 347.523 287.162 346.648 295.977Z" fill="#D2E3FF"/>
<path d="M706.2 353.78L672 698.43C611 740.11 564.29 748.01 554.8 749.24H554.71C554.162 749.383 553.596 749.45 553.03 749.44L337.47 728L377.89 321.13L706.2 353.78Z" fill="white"/>
<path d="M672 698.43C603.65 754.61 564.29 748.01 554.8 749.24C565.63 746.86 588.8 711.93 600.8 671.92C600.77 671.92 634.43 707.42 672 698.43Z" fill="#E6E6E6"/>
<path d="M523.31 608.55C568.873 608.55 605.81 571.614 605.81 526.05C605.81 480.487 568.873 443.55 523.31 443.55C477.746 443.55 440.81 480.487 440.81 526.05C440.81 571.614 477.746 608.55 523.31 608.55Z" fill="white"/>
<path d="M523.31 608.55C568.873 608.55 605.81 571.614 605.81 526.05C605.81 480.487 568.873 443.55 523.31 443.55C477.746 443.55 440.81 480.487 440.81 526.05C440.81 571.614 477.746 608.55 523.31 608.55Z" stroke="#42526E" stroke-width="7.67" stroke-linecap="round" stroke-linejoin="round"/>
<path d="M492.2 532.6L510.37 561.27L556.28 493.06" stroke="#42526E" stroke-width="7.67" stroke-linecap="round" stroke-linejoin="round"/>
<path d="M635.83 453.81C661.478 453.81 682.27 433.018 682.27 407.37C682.27 381.722 661.478 360.93 635.83 360.93C610.182 360.93 589.39 381.722 589.39 407.37C589.39 433.018 610.182 453.81 635.83 453.81Z" fill="#4589FF"/>
<path d="M419.39 653.75C436.002 653.75 449.47 640.283 449.47 623.67C449.47 607.057 436.002 593.59 419.39 593.59C402.777 593.59 389.31 607.057 389.31 623.67C389.31 640.283 402.777 653.75 419.39 653.75Z" fill="#4589FF"/>
<path d="M433.94 480.36C474.787 480.36 507.9 447.247 507.9 406.4C507.9 365.553 474.787 332.44 433.94 332.44C393.093 332.44 359.98 365.553 359.98 406.4C359.98 447.247 393.093 480.36 433.94 480.36Z" fill="#4589FF"/>
<path d="M554.67 749.25C554.122 749.393 553.557 749.461 552.99 749.45C552.99 749.45 553.56 749.4 554.67 749.25Z" fill="#E6E6E6"/>
<path d="M749.46 229.58C749.858 229.58 750.239 229.422 750.521 229.141C750.802 228.859 750.96 228.478 750.96 228.08C750.96 227.682 750.802 227.301 750.521 227.019C750.239 226.738 749.858 226.58 749.46 226.58C749.062 226.58 748.681 226.738 748.399 227.019C748.118 227.301 747.96 227.682 747.96 228.08C747.96 228.478 748.118 228.859 748.399 229.141C748.681 229.422 749.062 229.58 749.46 229.58Z" fill="#42526E"/>
<path d="M596 303.84L592.89 303.53C594.127 291.073 590.365 278.634 582.431 268.951C574.498 259.267 563.042 253.132 550.585 251.895C538.128 250.658 525.689 254.42 516.006 262.354C506.322 270.287 500.187 281.743 498.95 294.2L495.85 293.89C486.887 293.008 477.941 295.718 470.974 301.425C464.007 307.132 459.589 315.369 458.69 324.33L458.4 327.19C457.521 336.152 460.233 345.098 465.942 352.062C471.651 359.027 479.889 363.443 488.85 364.34L589 374.34C597.961 375.222 606.906 372.514 613.872 366.809C620.839 361.104 625.258 352.869 626.16 343.91L626.44 341.04C627.333 332.071 624.628 323.114 618.92 316.139C613.212 309.163 604.968 304.739 596 303.84ZM546.34 294.69C544.373 294.495 542.508 293.722 540.981 292.468C539.453 291.214 538.331 289.536 537.757 287.645C537.182 285.754 537.181 283.735 537.754 281.843C538.326 279.951 539.446 278.272 540.972 277.016C542.498 275.761 544.362 274.985 546.329 274.788C548.295 274.592 550.276 274.982 552.021 275.91C553.766 276.838 555.197 278.262 556.133 280.003C557.069 281.744 557.468 283.723 557.28 285.69C557.155 287.004 556.771 288.28 556.15 289.445C555.53 290.61 554.685 291.64 553.664 292.477C552.643 293.313 551.467 293.94 550.203 294.32C548.939 294.699 547.613 294.825 546.3 294.69H546.34Z" fill="#D2E3FF"/>
</svg>
