<svg width="145" height="39" viewBox="0 0 145 39" fill="none" xmlns="http://www.w3.org/2000/svg">
<g filter="url(#filter0_d_454_3237)">
<rect x="4" y="4" width="137" height="31" rx="10" fill="#FFEBB9"/>
<path d="M29.8208 27L25.2656 14.9951H25.1914C25.2161 15.2487 25.2378 15.5579 25.2563 15.9229C25.2749 16.2878 25.2904 16.6867 25.3027 17.1196C25.3151 17.5464 25.3213 17.9824 25.3213 18.4277V27H23.8555V13.4365H26.1934L30.4888 24.7178H30.5537L34.9141 13.4365H37.2334V27H35.6748V18.3164C35.6748 17.9144 35.681 17.5124 35.6934 17.1104C35.7057 16.7021 35.7212 16.3187 35.7397 15.96C35.7583 15.5951 35.7769 15.2796 35.7954 15.0137H35.7212L31.1104 27H29.8208ZM44.6274 16.6465C45.4933 16.6465 46.2355 16.8382 46.854 17.2217C47.4725 17.6051 47.9456 18.1432 48.2734 18.8359C48.6012 19.5225 48.7651 20.3265 48.7651 21.248V22.2036H41.7422C41.7607 23.3973 42.0576 24.3065 42.6328 24.9312C43.208 25.5558 44.0182 25.8682 45.0635 25.8682C45.7067 25.8682 46.2757 25.8094 46.7705 25.6919C47.2653 25.5744 47.7786 25.4012 48.3105 25.1724V26.5269C47.7972 26.7557 47.2869 26.9227 46.7798 27.0278C46.2788 27.133 45.6851 27.1855 44.9985 27.1855C44.0213 27.1855 43.1678 26.9876 42.438 26.5918C41.7144 26.1898 41.1515 25.6022 40.7495 24.8291C40.3475 24.056 40.1465 23.1097 40.1465 21.9902C40.1465 20.8955 40.3289 19.9492 40.6938 19.1514C41.0649 18.3473 41.5845 17.7288 42.2524 17.2959C42.9266 16.863 43.7183 16.6465 44.6274 16.6465ZM44.6089 17.9082C43.7863 17.9082 43.1307 18.1772 42.6421 18.7153C42.1535 19.2534 41.8628 20.0049 41.77 20.9697H47.1509C47.1447 20.3636 47.0488 19.8317 46.8633 19.374C46.6839 18.9102 46.4087 18.5514 46.0376 18.2979C45.6665 18.0381 45.1903 17.9082 44.6089 17.9082ZM54.9995 27.1855C53.7131 27.1855 52.6925 26.7464 51.938 25.8682C51.1896 24.9899 50.8154 23.6849 50.8154 21.9531C50.8154 20.2028 51.1989 18.8823 51.9658 17.9917C52.7327 17.0949 53.7533 16.6465 55.0273 16.6465C55.5654 16.6465 56.0355 16.7176 56.4375 16.8599C56.8395 17.0021 57.1859 17.1938 57.4766 17.4351C57.7673 17.6701 58.0116 17.9391 58.2095 18.2422H58.3208C58.2961 18.0505 58.2713 17.7876 58.2466 17.4536C58.2218 17.1196 58.2095 16.8475 58.2095 16.6372V12.5645H59.7495V27H58.5063L58.2744 25.5527H58.2095C58.0177 25.8558 57.7734 26.131 57.4766 26.3784C57.1859 26.6258 56.8364 26.8237 56.4282 26.9722C56.0262 27.1144 55.55 27.1855 54.9995 27.1855ZM55.2407 25.9053C56.3293 25.9053 57.0993 25.596 57.5508 24.9775C58.0023 24.359 58.228 23.4406 58.228 22.2222V21.9438C58.228 20.6512 58.0116 19.6585 57.5786 18.9658C57.1519 18.2731 56.3726 17.9268 55.2407 17.9268C54.2944 17.9268 53.5863 18.2917 53.1162 19.0215C52.6462 19.7451 52.4111 20.7347 52.4111 21.9902C52.4111 23.2396 52.6431 24.2044 53.1069 24.8848C53.577 25.5651 54.2882 25.9053 55.2407 25.9053ZM64.5552 16.832V27H63.0151V16.832H64.5552ZM63.8037 13.0283C64.0573 13.0283 64.2738 13.1118 64.4531 13.2788C64.6387 13.4396 64.7314 13.6932 64.7314 14.0396C64.7314 14.3797 64.6387 14.6333 64.4531 14.8003C64.2738 14.9673 64.0573 15.0508 63.8037 15.0508C63.5378 15.0508 63.3151 14.9673 63.1357 14.8003C62.9626 14.6333 62.876 14.3797 62.876 14.0396C62.876 13.6932 62.9626 13.4396 63.1357 13.2788C63.3151 13.1118 63.5378 13.0283 63.8037 13.0283ZM76.2168 16.832V27H74.9551L74.7324 25.5713H74.6489C74.4386 25.9238 74.1665 26.2207 73.8325 26.4619C73.4985 26.7031 73.1213 26.8825 72.7007 27C72.2863 27.1237 71.8441 27.1855 71.374 27.1855C70.57 27.1855 69.8958 27.0557 69.3516 26.7959C68.8073 26.5361 68.396 26.1341 68.1177 25.5898C67.8455 25.0456 67.7095 24.3467 67.7095 23.4932V16.832H69.2681V23.3818C69.2681 24.2292 69.4598 24.8631 69.8433 25.2837C70.2267 25.6981 70.8112 25.9053 71.5967 25.9053C72.3512 25.9053 72.9512 25.763 73.3965 25.4785C73.848 25.194 74.1727 24.7765 74.3706 24.2261C74.5685 23.6694 74.6675 22.9891 74.6675 22.1851V16.832H76.2168ZM90.5132 16.6465C91.6326 16.6465 92.4769 16.9403 93.0459 17.5278C93.6149 18.1092 93.8994 19.0462 93.8994 20.3389V27H92.3779V20.4131C92.3779 19.5905 92.1986 18.9751 91.8398 18.5669C91.4873 18.1525 90.9616 17.9453 90.2627 17.9453C89.2793 17.9453 88.5649 18.2298 88.1196 18.7988C87.6743 19.3678 87.4517 20.2059 87.4517 21.313V27H85.9209V20.4131C85.9209 19.8626 85.8405 19.4049 85.6797 19.04C85.5251 18.6751 85.29 18.403 84.9746 18.2236C84.6654 18.0381 84.2726 17.9453 83.7964 17.9453C83.1222 17.9453 82.5811 18.0845 82.1729 18.3628C81.7646 18.6411 81.4678 19.0555 81.2822 19.606C81.1029 20.1502 81.0132 20.8213 81.0132 21.6191V27H79.4731V16.832H80.7163L80.9482 18.27H81.0317C81.2358 17.9175 81.4925 17.6206 81.8018 17.3794C82.111 17.1382 82.4574 16.9557 82.8408 16.832C83.2243 16.7083 83.6325 16.6465 84.0654 16.6465C84.8385 16.6465 85.4849 16.7918 86.0044 17.0825C86.5301 17.367 86.9105 17.8031 87.1455 18.3906H87.229C87.563 17.8031 88.0207 17.367 88.6021 17.0825C89.1834 16.7918 89.8205 16.6465 90.5132 16.6465Z" fill="black"/>
<g clip-path="url(#clip0_454_3237)">
<path d="M122.068 22.6667H106.932C106.684 22.6667 106.448 22.5678 106.273 22.3919C106.098 22.2159 106 21.9772 106 21.7284C106 21.4795 106.098 21.2409 106.273 21.0649C106.448 20.889 106.684 20.7901 106.932 20.7901H122.068C122.316 20.7901 122.552 20.889 122.727 21.0649C122.902 21.2409 123 21.4795 123 21.7284C123 21.9772 122.902 22.2159 122.727 22.3919C122.552 22.5678 122.316 22.6667 122.068 22.6667Z" fill="#FF7A00"/>
<path d="M122.068 18.2099H106.932C106.684 18.2099 106.448 18.111 106.273 17.9351C106.098 17.7591 106 17.5204 106 17.2716C106 17.0228 106.098 16.7841 106.273 16.6081C106.448 16.4322 106.684 16.3333 106.932 16.3333H122.068C122.316 16.3333 122.552 16.4322 122.727 16.6081C122.902 16.7841 123 17.0228 123 17.2716C123 17.5204 122.902 17.7591 122.727 17.9351C122.552 18.111 122.316 18.2099 122.068 18.2099Z" fill="#FF7A00"/>
</g>
</g>
<defs>
<filter id="filter0_d_454_3237" x="0" y="0" width="145" height="39" filterUnits="userSpaceOnUse" color-interpolation-filters="sRGB">
<feFlood flood-opacity="0" result="BackgroundImageFix"/>
<feColorMatrix in="SourceAlpha" type="matrix" values="0 0 0 0 0 0 0 0 0 0 0 0 0 0 0 0 0 0 127 0" result="hardAlpha"/>
<feOffset/>
<feGaussianBlur stdDeviation="2"/>
<feColorMatrix type="matrix" values="0 0 0 0 0 0 0 0 0 0 0 0 0 0 0 0 0 0 0.16 0"/>
<feBlend mode="normal" in2="BackgroundImageFix" result="effect1_dropShadow_454_3237"/>
<feBlend mode="normal" in="SourceGraphic" in2="effect1_dropShadow_454_3237" result="shape"/>
</filter>
<clipPath id="clip0_454_3237">
<rect width="17" height="6.33333" fill="white" transform="translate(106 16.3333)"/>
</clipPath>
</defs>
</svg>
