<svg width="108" height="39" viewBox="0 0 108 39" fill="none" xmlns="http://www.w3.org/2000/svg">
<g filter="url(#filter0_d_454_3253)">
<rect x="4" y="4" width="100" height="31" rx="10" fill="#CBFFC2"/>
<path d="M23.8555 27V13.4365H25.4326V25.5898H31.4536V27H23.8555ZM42.3174 21.8975C42.3174 22.7324 42.2091 23.4777 41.9927 24.1333C41.7762 24.7889 41.4639 25.3424 41.0557 25.7939C40.6475 26.2454 40.1527 26.5918 39.5713 26.833C38.9961 27.068 38.3436 27.1855 37.6138 27.1855C36.9334 27.1855 36.3088 27.068 35.7397 26.833C35.1769 26.5918 34.6883 26.2454 34.2739 25.7939C33.8657 25.3424 33.5472 24.7889 33.3184 24.1333C33.0957 23.4777 32.9844 22.7324 32.9844 21.8975C32.9844 20.7842 33.173 19.8379 33.5503 19.0586C33.9276 18.2731 34.4657 17.6763 35.1646 17.2681C35.8696 16.8537 36.7077 16.6465 37.6787 16.6465C38.6064 16.6465 39.4167 16.8537 40.1094 17.2681C40.8083 17.6825 41.3494 18.2824 41.7329 19.0679C42.1226 19.8472 42.3174 20.7904 42.3174 21.8975ZM34.5801 21.8975C34.5801 22.7139 34.6883 23.422 34.9048 24.022C35.1213 24.6219 35.4552 25.0858 35.9067 25.4136C36.3582 25.7414 36.9396 25.9053 37.6509 25.9053C38.356 25.9053 38.9342 25.7414 39.3857 25.4136C39.8434 25.0858 40.1805 24.6219 40.397 24.022C40.6134 23.422 40.7217 22.7139 40.7217 21.8975C40.7217 21.0872 40.6134 20.3883 40.397 19.8008C40.1805 19.207 39.8465 18.7493 39.395 18.4277C38.9435 18.1061 38.359 17.9453 37.6416 17.9453C36.584 17.9453 35.8078 18.2948 35.313 18.9937C34.8244 19.6925 34.5801 20.6605 34.5801 21.8975ZM53.2554 26.9814L51.4463 21.0625C51.3659 20.8089 51.2886 20.5615 51.2144 20.3203C51.1463 20.0729 51.0814 19.8379 51.0195 19.6152C50.9639 19.3864 50.9113 19.1761 50.8618 18.9844C50.8185 18.7865 50.7814 18.6164 50.7505 18.4741H50.6855C50.6608 18.6164 50.6268 18.7865 50.5835 18.9844C50.5402 19.1761 50.4876 19.3864 50.4258 19.6152C50.3701 19.8441 50.3083 20.0853 50.2402 20.3389C50.1722 20.5863 50.0949 20.8368 50.0083 21.0903L48.1157 26.9814H46.3809L43.5791 16.8135H45.1748L46.6406 22.4263C46.7396 22.7974 46.8324 23.1654 46.9189 23.5303C47.0117 23.889 47.089 24.2292 47.1509 24.5508C47.2189 24.8662 47.2684 25.1414 47.2993 25.3765H47.3735C47.4106 25.2218 47.4508 25.0363 47.4941 24.8198C47.5436 24.6034 47.5962 24.3745 47.6519 24.1333C47.7137 23.8859 47.7786 23.6416 47.8467 23.4004C47.9147 23.153 47.9827 22.9211 48.0508 22.7046L49.9248 16.8135H51.5854L53.3945 22.6953C53.4873 22.9922 53.577 23.3014 53.6636 23.623C53.7563 23.9447 53.8398 24.257 53.9141 24.5601C53.9883 24.8569 54.0409 25.1229 54.0718 25.3579H54.146C54.1707 25.1476 54.2171 24.8879 54.2852 24.5786C54.3532 24.2694 54.4305 23.9292 54.5171 23.5581C54.6099 23.187 54.7057 22.8097 54.8047 22.4263L56.2891 16.8135H57.8569L55.0459 26.9814H53.2554Z" fill="black"/>
<g clip-path="url(#clip0_454_3253)">
<path d="M77.4998 20.7451C77.3004 20.7455 77.1061 20.6836 76.9456 20.5685L69.3771 15.1346C69.2786 15.0638 69.1954 14.9749 69.1323 14.8729C69.0692 14.7708 69.0274 14.6577 69.0092 14.54C68.9725 14.3022 69.0345 14.06 69.1815 13.8666C69.3285 13.6733 69.5484 13.5446 69.793 13.509C70.0376 13.4733 70.2867 13.5335 70.4856 13.6765L77.4998 18.7074L84.5141 13.6765C84.6125 13.6057 84.7244 13.5545 84.8432 13.5257C84.9621 13.497 85.0855 13.4913 85.2066 13.509C85.3277 13.5266 85.4441 13.5673 85.549 13.6287C85.6539 13.69 85.7454 13.7709 85.8182 13.8666C85.891 13.9624 85.9436 14.0711 85.9732 14.1867C86.0028 14.3022 86.0086 14.4223 85.9905 14.54C85.9723 14.6577 85.9305 14.7708 85.8673 14.8729C85.8042 14.9749 85.721 15.0638 85.6226 15.1346L78.0541 20.5685C77.8935 20.6836 77.6993 20.7455 77.4998 20.7451Z" fill="#02CF2F"/>
<path d="M77.5 25.5C77.3006 25.5003 77.1063 25.4384 76.9458 25.3234L69.3773 19.8894C69.1784 19.7465 69.046 19.5326 69.0094 19.2949C68.9727 19.0571 69.0346 18.8149 69.1816 18.6215C69.3286 18.4282 69.5486 18.2995 69.7932 18.2638C70.0378 18.2282 70.2869 18.2884 70.4858 18.4313L77.5 23.4623L84.5142 18.4313C84.7131 18.2884 84.9622 18.2282 85.2068 18.2638C85.4514 18.2995 85.6714 18.4282 85.8184 18.6215C85.9653 18.8149 86.0273 19.0571 85.9906 19.2949C85.954 19.5327 85.8216 19.7465 85.6227 19.8894L78.0542 25.3234C77.8937 25.4384 77.6994 25.5003 77.5 25.5Z" fill="#02CF2F"/>
</g>
</g>
<defs>
<filter id="filter0_d_454_3253" x="0" y="0" width="108" height="39" filterUnits="userSpaceOnUse" color-interpolation-filters="sRGB">
<feFlood flood-opacity="0" result="BackgroundImageFix"/>
<feColorMatrix in="SourceAlpha" type="matrix" values="0 0 0 0 0 0 0 0 0 0 0 0 0 0 0 0 0 0 127 0" result="hardAlpha"/>
<feOffset/>
<feGaussianBlur stdDeviation="2"/>
<feColorMatrix type="matrix" values="0 0 0 0 0 0 0 0 0 0 0 0 0 0 0 0 0 0 0.16 0"/>
<feBlend mode="normal" in2="BackgroundImageFix" result="effect1_dropShadow_454_3253"/>
<feBlend mode="normal" in="SourceGraphic" in2="effect1_dropShadow_454_3253" result="shape"/>
</filter>
<clipPath id="clip0_454_3253">
<rect width="17" height="12" fill="white" transform="translate(69 13.5)"/>
</clipPath>
</defs>
</svg>
