<svg width="133" height="39" viewBox="0 0 133 39" fill="none" xmlns="http://www.w3.org/2000/svg">
<g filter="url(#filter0_d_454_3260)">
<rect x="4" y="4" width="125" height="31" rx="10" fill="#FFD2D2"/>
<path d="M34.1162 13.4365V22.2129C34.1162 23.1715 33.9214 24.0251 33.5317 24.7734C33.1483 25.5218 32.5669 26.1125 31.7876 26.5454C31.0083 26.9722 30.0311 27.1855 28.856 27.1855C27.1799 27.1855 25.9027 26.731 25.0244 25.8218C24.1523 24.9126 23.7163 23.6973 23.7163 22.1758V13.4365H25.3027V22.2222C25.3027 23.3726 25.6058 24.2601 26.2119 24.8848C26.8242 25.5094 27.7365 25.8218 28.9487 25.8218C29.7775 25.8218 30.4548 25.6733 30.9805 25.3765C31.5124 25.0734 31.9051 24.6528 32.1587 24.1147C32.4185 23.5705 32.5483 22.9427 32.5483 22.2314V13.4365H34.1162ZM42.104 16.6465C42.3081 16.6465 42.5215 16.6589 42.7441 16.6836C42.9668 16.7021 43.1647 16.73 43.3379 16.7671L43.1431 18.1958C42.9761 18.1525 42.7905 18.1185 42.5864 18.0938C42.3823 18.069 42.1906 18.0566 42.0112 18.0566C41.603 18.0566 41.2165 18.1401 40.8516 18.3071C40.4928 18.4679 40.1774 18.703 39.9053 19.0122C39.6331 19.3153 39.4198 19.6833 39.2651 20.1162C39.1105 20.543 39.0332 21.0192 39.0332 21.5449V27H37.4839V16.832H38.7642L38.9312 18.7061H38.9961C39.2064 18.3288 39.46 17.9855 39.7568 17.6763C40.0537 17.3608 40.397 17.1104 40.7866 16.9248C41.1825 16.7393 41.6216 16.6465 42.104 16.6465ZM48.0972 31.5645C46.7612 31.5645 45.7314 31.314 45.0078 30.813C44.2842 30.3182 43.9224 29.6224 43.9224 28.7256C43.9224 28.0885 44.1234 27.5443 44.5254 27.0928C44.9336 26.6413 45.4964 26.3413 46.2139 26.1929C45.9479 26.0692 45.7191 25.8836 45.5273 25.6362C45.3418 25.3888 45.249 25.1043 45.249 24.7827C45.249 24.4116 45.3511 24.0869 45.5552 23.8086C45.7655 23.5241 46.084 23.252 46.5107 22.9922C45.9788 22.7757 45.5459 22.4108 45.2119 21.8975C44.8841 21.3779 44.7202 20.7749 44.7202 20.0884C44.7202 19.3586 44.8717 18.737 45.1748 18.2236C45.4779 17.7041 45.917 17.3083 46.4922 17.0361C47.0674 16.764 47.7632 16.6279 48.5796 16.6279C48.759 16.6279 48.9383 16.6372 49.1177 16.6558C49.3032 16.6681 49.4795 16.6898 49.6465 16.7207C49.8135 16.7454 49.9588 16.7764 50.0825 16.8135H53.5708V17.8062L51.6968 18.0381C51.8823 18.2793 52.0369 18.57 52.1606 18.9102C52.2843 19.2503 52.3462 19.6276 52.3462 20.042C52.3462 21.0563 52.0029 21.8634 51.3164 22.4634C50.6299 23.0571 49.6867 23.354 48.4868 23.354C48.2023 23.354 47.9116 23.3293 47.6147 23.2798C47.3117 23.4468 47.0798 23.6323 46.9189 23.8364C46.7643 24.0405 46.687 24.2756 46.687 24.5415C46.687 24.7394 46.7458 24.8971 46.8633 25.0146C46.987 25.1322 47.1632 25.2188 47.3921 25.2744C47.6209 25.3239 47.8962 25.3486 48.2178 25.3486H50.0083C51.1154 25.3486 51.9627 25.5806 52.5503 26.0444C53.144 26.5083 53.4409 27.1855 53.4409 28.0762C53.4409 29.2018 52.9832 30.0646 52.0679 30.6646C51.1525 31.2645 49.8289 31.5645 48.0972 31.5645ZM48.1436 30.3584C48.9847 30.3584 49.6805 30.2718 50.231 30.0986C50.7876 29.9316 51.202 29.6873 51.4741 29.3657C51.7524 29.0503 51.8916 28.673 51.8916 28.2339C51.8916 27.8257 51.7988 27.5164 51.6133 27.3062C51.4277 27.1021 51.1556 26.966 50.7969 26.8979C50.4382 26.8237 49.999 26.7866 49.4795 26.7866H47.7168C47.2591 26.7866 46.8602 26.8577 46.52 27C46.1799 27.1423 45.917 27.3525 45.7314 27.6309C45.5521 27.9092 45.4624 28.2555 45.4624 28.6699C45.4624 29.2204 45.6943 29.6379 46.1582 29.9224C46.6221 30.2131 47.2839 30.3584 48.1436 30.3584ZM48.5425 22.2314C49.2785 22.2314 49.832 22.0459 50.2031 21.6748C50.5742 21.3037 50.7598 20.7625 50.7598 20.0513C50.7598 19.2905 50.5711 18.7215 50.1938 18.3442C49.8166 17.9608 49.2599 17.769 48.5239 17.769C47.8188 17.769 47.2746 17.967 46.8911 18.3628C46.5138 18.7524 46.3252 19.3245 46.3252 20.0791C46.3252 20.7718 46.5169 21.3037 46.9004 21.6748C47.2839 22.0459 47.8312 22.2314 48.5425 22.2314ZM59.4897 16.6465C60.3556 16.6465 61.0978 16.8382 61.7163 17.2217C62.3348 17.6051 62.8079 18.1432 63.1357 18.8359C63.4635 19.5225 63.6274 20.3265 63.6274 21.248V22.2036H56.6045C56.623 23.3973 56.9199 24.3065 57.4951 24.9312C58.0703 25.5558 58.8805 25.8682 59.9258 25.8682C60.569 25.8682 61.138 25.8094 61.6328 25.6919C62.1276 25.5744 62.641 25.4012 63.1729 25.1724V26.5269C62.6595 26.7557 62.1493 26.9227 61.6421 27.0278C61.1411 27.133 60.5474 27.1855 59.8608 27.1855C58.8836 27.1855 58.0301 26.9876 57.3003 26.5918C56.5767 26.1898 56.0138 25.6022 55.6118 24.8291C55.2098 24.056 55.0088 23.1097 55.0088 21.9902C55.0088 20.8955 55.1912 19.9492 55.5562 19.1514C55.9272 18.3473 56.4468 17.7288 57.1147 17.2959C57.7889 16.863 58.5806 16.6465 59.4897 16.6465ZM59.4712 17.9082C58.6486 17.9082 57.993 18.1772 57.5044 18.7153C57.0158 19.2534 56.7251 20.0049 56.6323 20.9697H62.0132C62.007 20.3636 61.9111 19.8317 61.7256 19.374C61.5462 18.9102 61.271 18.5514 60.8999 18.2979C60.5288 18.0381 60.0526 17.9082 59.4712 17.9082ZM71.0586 16.6465C72.2646 16.6465 73.1769 16.9434 73.7954 17.5371C74.4139 18.1247 74.7231 19.071 74.7231 20.376V27H73.2017V20.478C73.2017 19.6307 73.0068 18.9967 72.6172 18.5762C72.2337 18.1556 71.6431 17.9453 70.8452 17.9453C69.7196 17.9453 68.9279 18.2638 68.4702 18.9009C68.0125 19.5379 67.7837 20.4626 67.7837 21.6748V27H66.2437V16.832H67.4868L67.7188 18.2979H67.8022C68.0187 17.9391 68.2939 17.6392 68.6279 17.3979C68.9619 17.1506 69.3361 16.965 69.7505 16.8413C70.1649 16.7114 70.6009 16.6465 71.0586 16.6465ZM81.1802 25.9238C81.4338 25.9238 81.6935 25.9022 81.9595 25.8589C82.2254 25.8156 82.4419 25.763 82.6089 25.7012V26.8979C82.4295 26.9784 82.179 27.0464 81.8574 27.1021C81.542 27.1577 81.2327 27.1855 80.9297 27.1855C80.3916 27.1855 79.903 27.0928 79.4639 26.9072C79.0247 26.7155 78.6722 26.3939 78.4062 25.9424C78.1465 25.4909 78.0166 24.8662 78.0166 24.0684V18.0381H76.5693V17.2866L78.0259 16.6836L78.6382 14.4756H79.5659V16.832H82.5439V18.0381H79.5659V24.022C79.5659 24.659 79.7113 25.1353 80.002 25.4507C80.2988 25.7661 80.6916 25.9238 81.1802 25.9238Z" fill="black"/>
<g clip-path="url(#clip0_454_3260)">
<path d="M102.5 18.2549C102.7 18.2545 102.894 18.3164 103.054 18.4315L110.623 23.8654C110.721 23.9362 110.805 24.0251 110.868 24.1271C110.931 24.2292 110.973 24.3423 110.991 24.46C111.027 24.6978 110.966 24.94 110.819 25.1334C110.672 25.3267 110.452 25.4554 110.207 25.491C109.962 25.5267 109.713 25.4665 109.514 25.3235L102.5 20.2926L95.4859 25.3235C95.3875 25.3943 95.2756 25.4455 95.1568 25.4743C95.0379 25.503 94.9145 25.5087 94.7934 25.491C94.6723 25.4734 94.5559 25.4327 94.451 25.3713C94.3461 25.31 94.2546 25.2291 94.1818 25.1334C94.109 25.0376 94.0564 24.9289 94.0268 24.8133C93.9972 24.6978 93.9914 24.5777 94.0095 24.46C94.0277 24.3423 94.0695 24.2292 94.1327 24.1271C94.1958 24.0251 94.279 23.9362 94.3774 23.8654L101.946 18.4315C102.106 18.3164 102.301 18.2545 102.5 18.2549Z" fill="#FF0000"/>
<path d="M102.5 13.5C102.699 13.4997 102.894 13.5616 103.054 13.6766L110.623 19.1106C110.822 19.2535 110.954 19.4674 110.991 19.7051C111.027 19.9429 110.965 20.1851 110.818 20.3785C110.671 20.5718 110.451 20.7005 110.207 20.7362C109.962 20.7718 109.713 20.7116 109.514 20.5687L102.5 15.5377L95.4858 20.5687C95.2869 20.7116 95.0378 20.7718 94.7932 20.7362C94.5486 20.7005 94.3286 20.5718 94.1816 20.3785C94.0347 20.1851 93.9727 19.9429 94.0094 19.7051C94.046 19.4674 94.1784 19.2535 94.3773 19.1106L101.946 13.6766C102.106 13.5616 102.301 13.4997 102.5 13.5Z" fill="#FF0000"/>
</g>
</g>
<defs>
<filter id="filter0_d_454_3260" x="0" y="0" width="133" height="39" filterUnits="userSpaceOnUse" color-interpolation-filters="sRGB">
<feFlood flood-opacity="0" result="BackgroundImageFix"/>
<feColorMatrix in="SourceAlpha" type="matrix" values="0 0 0 0 0 0 0 0 0 0 0 0 0 0 0 0 0 0 127 0" result="hardAlpha"/>
<feOffset/>
<feGaussianBlur stdDeviation="2"/>
<feColorMatrix type="matrix" values="0 0 0 0 0 0 0 0 0 0 0 0 0 0 0 0 0 0 0.16 0"/>
<feBlend mode="normal" in2="BackgroundImageFix" result="effect1_dropShadow_454_3260"/>
<feBlend mode="normal" in="SourceGraphic" in2="effect1_dropShadow_454_3260" result="shape"/>
</filter>
<clipPath id="clip0_454_3260">
<rect width="17" height="12" fill="white" transform="translate(111 25.5) rotate(-180)"/>
</clipPath>
</defs>
</svg>
