<svg width="44" height="31" viewBox="0 0 44 31" fill="none" xmlns="http://www.w3.org/2000/svg">
<path d="M1 0V31" stroke="#D1D1D1"/>
<path d="M25 5.34302C29.968 5.34302 34 9.37502 34 14.343C34 19.311 29.968 23.343 25 23.343C20.032 23.343 16 19.311 16 14.343C16 9.37502 20.032 5.34302 25 5.34302ZM25 21.343C28.867 21.343 32 18.21 32 14.343C32 10.475 28.867 7.34302 25 7.34302C21.132 7.34302 18 10.475 18 14.343C18 18.21 21.132 21.343 25 21.343ZM33 20.843L35.6247 23.535C36.0068 23.9269 36.0028 24.5532 35.6158 24.9402L35.5972 24.9588C35.2102 25.3458 34.5839 25.3498 34.192 24.9677L31.5 22.343L33 20.843Z" fill="black"/>
</svg>
