<svg width="1080" height="1080" viewBox="0 0 1080 1080" fill="none" xmlns="http://www.w3.org/2000/svg">
<path d="M982.5 540C982.505 554.851 981.761 569.694 980.27 584.47C980.19 585.47 980.09 586.38 979.99 587.33C968.7 692.731 919.928 790.571 842.558 863.032C765.187 935.493 664.364 977.754 558.45 982.12C552.33 982.373 546.18 982.5 540 982.5C525.38 982.5 510.937 981.803 496.67 980.41C473.725 978.192 450.989 974.179 428.67 968.41C426.89 967.95 425.117 967.477 423.35 966.99C235.56 915.78 97.5 744 97.5 540C97.5 295.61 295.61 97.5 540 97.5C734.45 97.5 899.6 222.92 959 397.27L960 400.39C972.798 438.949 980.202 479.092 982 519.68C982.34 526.413 982.507 533.187 982.5 540Z" fill="#4589FF"/>
<path d="M980.269 584.47C980.189 585.47 980.089 586.38 979.989 587.33C968.699 692.731 919.927 790.571 842.557 863.032C765.186 935.493 664.363 977.754 558.449 982.12L356.289 767.68L723.709 312.32L980.269 584.47Z" fill="#005DFF"/>
<path d="M723.709 312.32V698C660.709 750.91 609.809 764.81 599.429 767.21H599.329C598.736 767.423 598.117 767.558 597.489 767.61H356.289V312.32H723.709Z" fill="white"/>
<path d="M599.33 767.28C598.737 767.493 598.118 767.628 597.49 767.68C597.49 767.68 598.11 767.56 599.33 767.28Z" fill="#E6E6E6"/>
<path d="M453.741 371.87H402.411C396.595 371.87 391.881 376.585 391.881 382.4V433.73C391.881 439.546 396.595 444.26 402.411 444.26H453.741C459.556 444.26 464.271 439.546 464.271 433.73V382.4C464.271 376.585 459.556 371.87 453.741 371.87Z" fill="white" stroke="#42526E" stroke-width="11.14" stroke-linecap="round" stroke-linejoin="round"/>
<path d="M453.741 503.81H402.411C396.595 503.81 391.881 508.525 391.881 514.34V565.67C391.881 571.486 396.595 576.2 402.411 576.2H453.741C459.556 576.2 464.271 571.486 464.271 565.67V514.34C464.271 508.525 459.556 503.81 453.741 503.81Z" fill="white" stroke="#42526E" stroke-width="11.14" stroke-linecap="round" stroke-linejoin="round"/>
<path d="M453.741 635.74H402.411C396.595 635.74 391.881 640.454 391.881 646.27V697.6C391.881 703.416 396.595 708.13 402.411 708.13H453.741C459.556 708.13 464.271 703.416 464.271 697.6V646.27C464.271 640.454 459.556 635.74 453.741 635.74Z" fill="white" stroke="#42526E" stroke-width="11.14" stroke-linecap="round" stroke-linejoin="round"/>
<path d="M493.23 408.46H674.17" stroke="#42526E" stroke-width="11.14" stroke-linecap="round" stroke-linejoin="round"/>
<path d="M516.869 444.09H650.519" stroke="#42526E" stroke-width="11.14" stroke-linecap="round" stroke-linejoin="round"/>
<path d="M516.609 576.62H650.249" stroke="#42526E" stroke-width="11.14" stroke-linecap="round" stroke-linejoin="round"/>
<path d="M516.609 708.04H650.249" stroke="#42526E" stroke-width="11.14" stroke-linecap="round" stroke-linejoin="round"/>
<path d="M493.23 539.87H674.17" stroke="#42526E" stroke-width="11.14" stroke-linecap="round" stroke-linejoin="round"/>
<path d="M493.23 676.85H674.17" stroke="#42526E" stroke-width="11.14" stroke-linecap="round" stroke-linejoin="round"/>
<path d="M723.71 698C654.15 767.78 609.81 764.81 599.43 767.21C611.16 763.38 632.99 722.12 641.9 676.46C641.9 676.5 683.11 712.14 723.71 698Z" fill="#E6E6E6"/>
<path d="M688.114 402.718L637.152 368.334L482.66 597.315L533.622 631.699L688.114 402.718Z" fill="white" stroke="#4589FF" stroke-width="9.53189" stroke-linecap="round" stroke-linejoin="round"/>
<path d="M683.975 334.715L701.737 346.699C706.14 349.67 709.182 354.268 710.195 359.481C711.207 364.695 710.107 370.097 707.137 374.499L687.828 403.118L636.866 368.734L656.169 340.124C657.64 337.942 659.525 336.072 661.718 334.62C663.912 333.167 666.37 332.161 668.952 331.659C671.534 331.157 674.19 331.168 676.767 331.692C679.345 332.217 681.794 333.244 683.975 334.715Z" fill="white" stroke="#4589FF" stroke-width="9.53189" stroke-linecap="round" stroke-linejoin="round"/>
<path d="M482.93 646.36L486.75 595.72L537.82 629.81L492.53 652.81C491.479 653.341 490.305 653.583 489.129 653.511C487.953 653.438 486.818 653.053 485.841 652.396C484.863 651.74 484.078 650.834 483.566 649.773C483.055 648.712 482.835 647.534 482.93 646.36Z" fill="white" stroke="#4589FF" stroke-width="9.52" stroke-linecap="round" stroke-linejoin="round"/>
</svg>
