<svg width="1080" height="1080" viewBox="0 0 1080 1080" fill="none" xmlns="http://www.w3.org/2000/svg">
<g clip-path="url(#clip0_656_3745)">
<path d="M982.5 540C982.5 542 982.5 543.89 982.5 545.83C982.5 547.17 982.5 548.5 982.43 549.83C977.84 760.28 826.34 934.51 626.43 974.05C616.11 976.103 605.66 977.77 595.08 979.05C539.452 985.957 483.021 982.32 428.74 968.33C426.96 967.87 425.187 967.397 423.42 966.91C235.56 915.78 97.5 744 97.5 540C97.5 295.61 295.61 97.5 540 97.5C734.45 97.5 899.6 222.92 959 397.27L960 400.39C974.948 445.417 982.545 492.557 982.5 540Z" fill="#4589FF"/>
<path d="M979.4 543.05C978.06 541.79 976.7 540.54 975.32 539.32C973.94 538.1 972.61 536.81 971.24 535.58C969.87 534.35 968.53 533.07 967.16 531.84C965.79 530.61 964.45 529.33 963.07 528.1C961.69 526.87 960.37 525.59 958.99 524.37C957.61 523.15 956.28 521.86 954.91 520.63C953.54 519.4 952.2 518.12 950.82 516.89C949.44 515.66 948.12 514.38 946.74 513.15C945.36 511.92 944.03 510.64 942.66 509.42C941.29 508.2 939.95 506.91 938.57 505.68C937.19 504.45 935.87 503.17 934.49 501.94C933.11 500.71 931.79 499.43 930.41 498.2C929.03 496.97 927.7 495.69 926.33 494.47C924.96 493.25 923.62 491.96 922.24 490.73C920.86 489.5 919.54 488.22 918.16 486.99C916.78 485.76 915.45 484.48 914.08 483.25C912.71 482.02 911.37 480.74 909.99 479.52C908.61 478.3 907.29 477.01 905.91 475.78C904.53 474.55 903.2 473.27 901.83 472.04C900.46 470.81 899.12 469.53 897.75 468.3C896.38 467.07 895.04 465.79 893.66 464.57C892.28 463.35 890.96 462.06 889.58 460.83C888.2 459.6 886.87 458.32 885.5 457.09C884.13 455.86 882.79 454.58 881.41 453.35C880.03 452.12 878.71 450.84 877.33 449.62C875.95 448.4 874.62 447.11 873.25 445.88C871.88 444.65 870.54 443.37 869.16 442.14C867.78 440.91 866.46 439.63 865.08 438.4C863.7 437.17 862.38 435.89 861 434.66C859.62 433.43 858.29 432.16 856.92 430.93C855.55 429.7 854.21 428.42 852.83 427.19C851.45 425.96 850.13 424.68 848.75 423.45C847.37 422.22 846.04 420.94 844.67 419.71C843.3 418.48 841.96 417.21 840.58 415.98C839.2 414.75 837.88 413.47 836.5 412.24C835.12 411.01 833.79 409.73 832.42 408.5C831.05 407.27 829.71 405.99 828.33 404.76C826.95 403.53 825.63 402.26 824.25 401.03C822.87 399.8 821.55 398.52 820.17 397.29C818.79 396.06 817.46 394.78 816.08 393.55C814.7 392.32 813.38 391.04 812 389.81C810.62 388.58 809.3 387.31 807.92 386.08C770.896 351.271 722.563 330.977 671.787 328.922C621.011 326.866 571.196 343.187 531.48 374.89C530.828 374.252 530.129 373.664 529.39 373.13L525.66 368.9L518.2 360.44L514.47 356.21L510.74 352L503.28 343.54L499.56 339.31C499.56 339.31 494.51 333.53 490.5 333.53H382C379.348 333.53 376.804 334.584 374.929 336.459C373.054 338.334 372 340.878 372 343.53C372 347.01 376.46 351.86 376.46 351.86L380.04 356.08L383.62 360.3L387.19 364.52L390.77 368.74L394.35 372.96L397.92 377.18L401.5 381.4L405.07 385.62L408.65 389.85L412.23 394.07L415.8 398.29L419.38 402.51L423 406.7L426.57 410.92L430.15 415.14L433.73 419.36L437.3 423.59L440.88 427.81L444.45 432.03L448.03 436.25L451.61 440.47L455.18 444.69L458.76 448.91L462.34 453.13L465.91 457.35C466.429 458.304 467.032 459.211 467.71 460.06C465.797 464.727 464.053 469.46 462.48 474.26C461.694 473.508 460.832 472.838 459.91 472.26L455.93 468L452 463.78L444.12 455.32L440.12 451.1L436.18 446.87L432.23 442.64L428.29 438.42C428.29 438.42 423.98 433.25 420.47 433.25H401.45C400.7 431.66 397.98 429.46 397.98 429.46L394.31 425.22L390.64 421L387 416.75L383.33 412.52L379.66 408.28L376 404.05L372.33 399.81L368.67 395.58L365 391.34L361.33 387.11L357.67 382.87C357.67 382.87 353.36 377.5 349.77 377.5H322.64C320.386 377.5 318.224 378.396 316.63 379.99C315.036 381.584 314.14 383.746 314.14 386C314.14 389.14 318.39 393.35 318.39 393.35L322 397.6L325.66 401.84L329.31 406.09L332.96 410.33L336.62 414.58L340.27 418.82L343.93 423.07L347.58 427.31L351.23 431.56C351.495 432.141 351.796 432.706 352.13 433.25H279C276.746 433.253 274.586 434.149 272.993 435.743C271.399 437.336 270.503 439.496 270.5 441.75C270.5 444.91 274.78 449.12 274.78 449.12L278.45 453.35L282.12 457.57L285.79 461.8L289.46 466.03L293.13 470.25L296.8 474.48L300.47 478.7L304.14 482.93L307.81 487.16L311.48 491.38L315.15 495.61L318.82 499.84L322.49 504.06L326.16 508.29L329.83 512.52L333.5 516.74L337.17 520.97L340.84 525.2L344.51 529.42C344.854 530.142 345.252 530.837 345.7 531.5H338.32C337.577 531.045 336.801 530.644 336 530.3L331.15 526.53L326.31 522.77L321.46 519L316.62 515.24L311.77 511.47L306.93 507.71L302.09 504L297.24 500.23L292.4 496.47L287.55 492.71L282.71 488.94L277.86 485.18L273 481.38C273 481.38 268.17 477 264.73 477H237.64C234.988 477 232.444 478.054 230.569 479.929C228.694 481.804 227.64 484.348 227.64 487C227.64 491.33 234.24 496.39 234.24 496.39L239.09 500.15L244 503.9L248.85 507.65L253.71 511.4L258.56 515.15L263.41 518.9L268.27 522.65L273.12 526.4C273.12 526.4 275.99 529.4 277.97 530.15C278.278 530.626 278.623 531.077 279 531.5H196C193.746 531.503 191.586 532.399 189.993 533.992C188.399 535.586 187.503 537.746 187.5 540C187.5 544 194.08 548.27 194.08 548.27L198.79 551.27L203.5 554.27L208.21 557.27L212.93 560.27L217.64 563.27L222.35 566.27L227.07 569.27L231.78 572.27L236.49 575.27L241.21 578.27L245.92 581.27L250.63 584.27C250.63 584.27 250.97 584.67 251.16 584.86C248.998 584.99 246.966 585.939 245.48 587.515C243.993 589.091 243.164 591.174 243.16 593.34C243.16 597.22 249.3 601.5 249.3 601.5L254.19 605.23L259.07 608.95L263.96 612.68L268.84 616.4L273.72 620.13L278.61 623.85L283.49 627.58C283.49 627.58 283.95 628.27 284.22 628.58H279C276.348 628.58 273.804 629.634 271.929 631.509C270.054 633.384 269 635.928 269 638.58C269 643.43 277 648.38 277 648.38L281.6 650.66L286.19 652.93L290.79 655.2L295.38 657.47L299.98 659.74L304.58 662.01L309.2 664L313.8 666.27L318.39 668.54L322.99 670.82L327.58 673.09L332.18 675.36L341 685.5H308.64C306.386 685.5 304.224 686.396 302.63 687.99C301.036 689.584 300.14 691.746 300.14 694C300.14 697.5 305.28 701.81 305.28 701.81C412.14 792.73 518.68 884.19 626.36 974.06C826.3 934.52 977.8 760.29 982.36 549.84C982.36 548.5 982.41 547.17 982.43 545.84C981.45 544.9 980.43 544 979.4 543.05ZM598.21 817L598.61 817.19L598.82 817.63C598.63 817.38 598.42 817.17 598.21 817Z" fill="#005DFF"/>
<path d="M663.25 751.25C779.92 751.25 874.5 656.67 874.5 540C874.5 423.33 779.92 328.75 663.25 328.75C546.58 328.75 452 423.33 452 540C452 656.67 546.58 751.25 663.25 751.25Z" fill="white"/>
<path d="M663.25 728.75C767.494 728.75 852 644.244 852 540C852 435.756 767.494 351.25 663.25 351.25C559.006 351.25 474.5 435.756 474.5 540C474.5 644.244 559.006 728.75 663.25 728.75Z" stroke="#42526E" stroke-width="10" stroke-linecap="round" stroke-linejoin="round"/>
<path d="M663.5 400V540H764" stroke="#42526E" stroke-width="10" stroke-linecap="round" stroke-linejoin="round"/>
<path d="M663.25 550C668.773 550 673.25 545.523 673.25 540C673.25 534.477 668.773 530 663.25 530C657.727 530 653.25 534.477 653.25 540C653.25 545.523 657.727 550 663.25 550Z" fill="#42526E"/>
<path d="M420.5 441.75H279" stroke="white" stroke-width="17" stroke-linecap="round" stroke-linejoin="round"/>
<path d="M490.5 343.5H382" stroke="white" stroke-width="20" stroke-linecap="round" stroke-linejoin="round"/>
<path d="M420.5 638.25H279" stroke="white" stroke-width="20" stroke-linecap="round" stroke-linejoin="round"/>
<path d="M490.5 736.5H382" stroke="white" stroke-width="20" stroke-linecap="round" stroke-linejoin="round"/>
<path d="M449.75 392.63H434.64" stroke="white" stroke-width="17" stroke-linecap="round" stroke-linejoin="round"/>
<path d="M465.75 687.38H438.64" stroke="white" stroke-width="17" stroke-linecap="round" stroke-linejoin="round"/>
<path d="M428.75 589.13H413.64" stroke="white" stroke-width="20" stroke-linecap="round" stroke-linejoin="round"/>
<path d="M278.75 593H251.64" stroke="white" stroke-width="17" stroke-linecap="round" stroke-linejoin="round"/>
<path d="M335.75 694H308.64" stroke="white" stroke-width="17" stroke-linecap="round" stroke-linejoin="round"/>
<path d="M418.75 490.88H391.64" stroke="white" stroke-width="17" stroke-linecap="round" stroke-linejoin="round"/>
<path d="M264.75 487H237.64" stroke="white" stroke-width="20" stroke-linecap="round" stroke-linejoin="round"/>
<path d="M322.64 386H349.75" stroke="white" stroke-width="17" stroke-linecap="round" stroke-linejoin="round"/>
<path d="M196 540H392.5" stroke="white" stroke-width="17" stroke-linecap="round" stroke-linejoin="round"/>
</g>
<defs>
<clipPath id="clip0_656_3745">
<rect width="1080" height="1080" fill="white"/>
</clipPath>
</defs>
</svg>
