<svg width="22" height="22" viewBox="0 0 22 22" fill="none" xmlns="http://www.w3.org/2000/svg">
<path d="M20.53 3.84312L17.16 0.473118C17.0104 0.323149 16.8327 0.204162 16.6371 0.122976C16.4415 0.04179 16.2318 0 16.02 0C15.8082 0 15.5985 0.04179 15.4028 0.122976C15.2072 0.204162 15.0295 0.323149 14.88 0.473118L1.77328 13.6563C1.37895 14.0529 1.10335 14.5519 0.977583 15.0969L0.0599884 19.0731C0.0126998 19.3063 0.017671 19.547 0.0745453 19.778C0.13142 20.009 0.238783 20.2246 0.388913 20.4091C0.539042 20.5937 0.728208 20.7427 0.942802 20.8454C1.1574 20.9481 1.39208 21.002 1.62999 21.0031C1.75295 21.0167 1.87703 21.0167 1.99999 21.0031L5.98695 20.1235C6.55034 19.9992 7.06594 19.7151 7.47196 19.3052L20.53 6.12312C20.68 5.97356 20.7989 5.79588 20.8801 5.60026C20.9613 5.40464 21.0031 5.19492 21.0031 4.98312C21.0031 4.77132 20.9613 4.5616 20.8801 4.36598C20.7989 4.17036 20.68 3.99268 20.53 3.84312ZM5.80999 18.0831L2.14999 18.8931L2.99999 15.2631L13.32 4.87312L16.14 7.69312L5.80999 18.0831ZM17.27 6.56312L14.45 3.74312L16 2.16312L18.84 5.00312L17.27 6.56312Z" fill="#42526E"/>
</svg>
