<svg width="24" height="24" viewBox="0 0 24 24" fill="none" xmlns="http://www.w3.org/2000/svg">
<path d="M17.8334 2.50002H22.3335C22.6429 2.50002 22.9397 2.62294 23.1584 2.84173C23.3772 3.06052 23.5002 3.35727 23.5002 3.66669V22.3334C23.5002 22.6428 23.3772 22.9395 23.1584 23.1583C22.9397 23.3771 22.6429 23.5 22.3335 23.5H1.66667C1.35725 23.5 1.0605 23.3771 0.841709 23.1583C0.622916 22.9395 0.5 22.6428 0.5 22.3334V3.66669C0.5 3.35727 0.622916 3.06052 0.841709 2.84173C1.0605 2.62294 1.35725 2.50002 1.66667 2.50002H6.16674V1.16669C6.16674 0.614402 6.61446 0.166687 7.16674 0.166687H7.50008C8.05236 0.166687 8.50007 0.614402 8.50007 1.16669V2.50002H15.5001V1.16669C15.5001 0.614402 15.9478 0.166687 16.5001 0.166687H16.8334C17.3857 0.166687 17.8334 0.614402 17.8334 1.16669V2.50002ZM2.50016 9.00002V21.5H21.5002V9.00002H2.50016ZM5.00005 15.1667C5.00006 14.6144 5.44778 14.1667 6.00005 14.1667H9.83341C10.3857 14.1667 10.8334 14.6144 10.8334 15.1667V16.5C10.8334 17.0523 10.3857 17.5 9.83341 17.5H6.00002C5.44773 17.5 5.00001 17.0523 5.00002 16.5L5.00005 15.1667Z" fill="#4589FF"/>
</svg>
