<svg xmlns="http://www.w3.org/2000/svg" height="48" width="48"><path d="M18.05 33.05 24 27 30 33.05 32.35 30.65 26.4 24.6 32.35 18.55 30 16.15 24 22.2 18.05 16.15 15.65 18.55 21.65 24.6 15.65 30.65ZM13.05 42Q11.85 42 10.95 41.1Q10.05 40.2 10.05 39V10.5H8V7.5H17.4V6H30.6V7.5H40V10.5H37.95V39Q37.95 40.2 37.05 41.1Q36.15 42 34.95 42ZM34.95 10.5H13.05V39Q13.05 39 13.05 39Q13.05 39 13.05 39H34.95Q34.95 39 34.95 39Q34.95 39 34.95 39ZM13.05 10.5V39Q13.05 39 13.05 39Q13.05 39 13.05 39Q13.05 39 13.05 39Q13.05 39 13.05 39Z"/></svg>